<?xml version="1.0" standalone="no"?>
        <!DOCTYPE svg PUBLIC "-//W3C//DTD SVG 1.1//EN" 
        "http://www.w3.org/Graphics/SVG/1.1/DTD/svg11.dtd"><svg id="changeColor" fill="#DC7633" xmlns="http://www.w3.org/2000/svg" xmlns:xlink="http://www.w3.org/1999/xlink" width="185" zoomAndPan="magnify" viewBox="0 0 375 374.9999" height="185" preserveAspectRatio="xMidYMid meet" version="1.0"><defs><path id="pathAttribute" d="M 22.0625 34 L 352 34 L 352 204.375 L 22.0625 204.375 Z M 22.0625 34 " clip-rule="nonzero" fill="#100f0f" filter="url(#bgShadow)" stroke-width="1.6" stroke="#727272"><filter id="bgShadow"><feDropShadow id="bgShadowValue" stdDeviation="7.6" dx="8" dy="2" flood-color="#8a66cc"></feDropShadow></filter><filter id="bgShadow"><feDropShadow id="bgShadowValue" stdDeviation=".5" dx="0" dy="0" flood-color="#8a66cc"></feDropShadow></filter><filter id="bgShadow"><feDropShadow id="bgShadowValue" stdDeviation=".5" dx="0" dy="0" flood-color="#8a66cc"></feDropShadow></filter><filter id="bgShadow"><feDropShadow id="bgShadowValue" stdDeviation=".5" dx="0" dy="0" flood-color="#8a66cc"></feDropShadow></filter><filter id="bgShadow"><feDropShadow id="bgShadowValue" stdDeviation=".5" dx="0" dy="0" flood-color="#8a66cc"></feDropShadow></filter><filter id="bgShadow"><feDropShadow id="bgShadowValue" stdDeviation=".5" dx="0" dy="0" flood-color="#8a66cc"></feDropShadow></filter><filter id="bgShadow"><feDropShadow id="bgShadowValue" stdDeviation=".5" dx="0" dy="0" flood-color="#8a66cc"></feDropShadow></filter><filter id="bgShadow"><feDropShadow id="bgShadowValue" stdDeviation=".5" dx="0" dy="0" flood-color="#8a66cc"></feDropShadow></filter></path></defs><g><path id="pathAttribute" d="M 22.652344 199.027344 C 22.699219 193.5625 23.019531 188.117188 23.605469 182.683594 C 24.1875 177.25 25.039062 171.859375 26.152344 166.511719 C 27.265625 161.164062 28.636719 155.882812 30.265625 150.667969 C 31.898438 145.453125 33.78125 140.332031 35.914062 135.304688 C 38.046875 130.277344 40.417969 125.363281 43.03125 120.570312 C 45.648438 115.773438 48.488281 111.121094 51.5625 106.605469 C 54.632812 102.089844 57.914062 97.734375 61.414062 93.542969 C 64.910156 89.351562 68.605469 85.34375 72.496094 81.515625 C 74.410156 79.621094 76.375 77.769531 78.382812 75.972656 C 80.390625 74.171875 82.441406 72.421875 84.535156 70.726562 C 86.628906 69.027344 88.765625 67.378906 90.9375 65.789062 C 93.113281 64.195312 95.324219 62.65625 97.578125 61.171875 C 99.828125 59.6875 102.113281 58.257812 104.433594 56.886719 C 106.753906 55.515625 109.105469 54.203125 111.488281 52.945312 C 113.875 51.691406 116.289062 50.492188 118.730469 49.355469 C 121.175781 48.21875 123.644531 47.144531 126.140625 46.128906 C 128.636719 45.113281 131.15625 44.160156 133.699219 43.269531 C 136.242188 42.378906 138.804688 41.550781 141.390625 40.785156 C 143.972656 40.019531 146.574219 39.320312 149.191406 38.683594 C 151.808594 38.046875 154.441406 37.476562 157.085938 36.96875 C 159.730469 36.460938 162.390625 36.019531 165.058594 35.644531 C 167.722656 35.269531 170.398438 34.957031 173.082031 34.714844 C 175.765625 34.46875 178.453125 34.292969 181.144531 34.179688 C 183.835938 34.070312 186.527344 34.023438 189.222656 34.042969 C 191.914062 34.066406 194.605469 34.152344 197.296875 34.304688 C 199.984375 34.460938 202.671875 34.679688 205.347656 34.964844 C 208.027344 35.25 210.699219 35.601562 213.359375 36.019531 C 216.019531 36.4375 218.667969 36.917969 221.308594 37.46875 C 223.945312 38.015625 226.566406 38.628906 229.175781 39.304688 C 231.785156 39.980469 234.375 40.722656 236.945312 41.527344 C 239.515625 42.332031 242.066406 43.199219 244.59375 44.128906 C 247.125 45.058594 249.628906 46.050781 252.109375 47.105469 C 254.589844 48.160156 257.042969 49.273438 259.46875 50.449219 C 261.890625 51.621094 264.289062 52.855469 266.652344 54.148438 C 269.019531 55.441406 271.347656 56.792969 273.648438 58.199219 C 275.945312 59.605469 278.210938 61.070312 280.4375 62.589844 C 282.664062 64.109375 284.851562 65.679688 287.003906 67.308594 C 289.152344 68.933594 291.261719 70.613281 293.328125 72.34375 C 295.394531 74.074219 297.417969 75.855469 299.398438 77.6875 C 301.378906 79.515625 303.3125 81.394531 305.203125 83.320312 C 308.933594 87.132812 312.46875 91.121094 315.8125 95.28125 C 319.152344 99.445312 322.28125 103.757812 325.199219 108.230469 C 328.117188 112.699219 330.808594 117.300781 333.277344 122.035156 C 335.742188 126.769531 337.972656 131.613281 339.964844 136.570312 C 341.957031 141.523438 343.699219 146.5625 345.199219 151.6875 C 346.695312 156.816406 347.9375 162.003906 348.929688 167.25 C 349.917969 172.5 350.648438 177.785156 351.121094 183.105469 C 351.589844 188.425781 351.800781 193.753906 351.75 199.097656 C 351.71875 195.132812 351.542969 191.171875 351.21875 187.21875 C 350.894531 183.269531 350.429688 179.332031 349.816406 175.417969 C 349.203125 171.5 348.449219 167.609375 347.550781 163.746094 C 346.652344 159.886719 345.613281 156.0625 344.433594 152.277344 C 343.253906 148.492188 341.9375 144.757812 340.480469 141.070312 C 339.027344 137.382812 337.4375 133.753906 335.714844 130.183594 C 333.992188 126.613281 332.144531 123.113281 330.164062 119.679688 C 328.183594 116.246094 326.082031 112.890625 323.855469 109.613281 C 321.628906 106.335938 319.28125 103.144531 316.820312 100.039062 C 314.359375 96.9375 311.789062 93.925781 309.105469 91.011719 C 306.421875 88.097656 303.636719 85.285156 300.746094 82.578125 C 297.855469 79.871094 294.871094 77.273438 291.789062 74.785156 C 288.707031 72.296875 285.539062 69.925781 282.285156 67.675781 C 279.027344 65.421875 275.695312 63.289062 272.28125 61.285156 C 268.871094 59.277344 265.390625 57.398438 261.839844 55.648438 C 258.289062 53.898438 254.679688 52.285156 251.007812 50.800781 C 247.386719 49.332031 243.714844 48.003906 239.992188 46.804688 C 236.269531 45.609375 232.511719 44.554688 228.710938 43.632812 C 224.914062 42.714844 221.085938 41.941406 217.230469 41.304688 C 213.375 40.667969 209.5 40.175781 205.605469 39.828125 C 201.714844 39.476562 197.816406 39.273438 193.90625 39.210938 C 190 39.148438 186.097656 39.230469 182.195312 39.457031 C 178.292969 39.6875 174.40625 40.054688 170.53125 40.570312 C 166.65625 41.085938 162.808594 41.742188 158.984375 42.539062 C 155.15625 43.335938 151.367188 44.277344 147.609375 45.355469 C 143.851562 46.433594 140.140625 47.648438 136.472656 49 C 132.804688 50.355469 129.191406 51.839844 125.632812 53.460938 C 122.078125 55.078125 118.582031 56.828125 115.152344 58.703125 C 111.722656 60.582031 108.367188 62.582031 105.085938 64.707031 C 101.804688 66.835938 98.601562 69.078125 95.484375 71.4375 C 92.367188 73.800781 89.34375 76.273438 86.40625 78.859375 C 83.472656 81.445312 80.632812 84.136719 77.898438 86.929688 C 74.285156 90.621094 70.859375 94.484375 67.625 98.511719 C 64.390625 102.542969 61.363281 106.71875 58.539062 111.046875 C 55.714844 115.375 53.105469 119.832031 50.71875 124.417969 C 48.332031 129 46.171875 133.691406 44.246094 138.488281 C 42.316406 143.285156 40.628906 148.164062 39.179688 153.128906 C 37.730469 158.089844 36.527344 163.113281 35.570312 168.195312 C 34.613281 173.277344 33.90625 178.394531 33.449219 183.542969 C 32.996094 188.695312 32.792969 193.855469 32.84375 199.027344 C 32.84375 199.363281 32.8125 199.695312 32.746094 200.023438 C 32.679688 200.351562 32.582031 200.671875 32.457031 200.984375 C 32.328125 201.292969 32.171875 201.585938 31.984375 201.867188 C 31.796875 202.144531 31.585938 202.402344 31.351562 202.640625 C 31.113281 202.875 30.855469 203.089844 30.578125 203.273438 C 30.300781 203.460938 30.007812 203.617188 29.699219 203.746094 C 29.386719 203.875 29.070312 203.972656 28.742188 204.039062 C 28.414062 204.101562 28.082031 204.136719 27.746094 204.136719 C 27.414062 204.136719 27.082031 204.101562 26.753906 204.039062 C 26.425781 203.972656 26.105469 203.875 25.796875 203.746094 C 25.488281 203.617188 25.195312 203.460938 24.914062 203.273438 C 24.636719 203.089844 24.378906 202.875 24.144531 202.640625 C 23.90625 202.402344 23.695312 202.144531 23.507812 201.867188 C 23.324219 201.585938 23.167969 201.292969 23.039062 200.984375 C 22.910156 200.671875 22.8125 200.351562 22.75 200.023438 C 22.683594 199.695312 22.652344 199.363281 22.652344 199.027344 Z M 22.652344 199.027344 " fill-opacity="1" fill-rule="nonzero" fill="#100f0f" filter="url(#bgShadow)" stroke-width="1.6" stroke="#727272"></path></g><g id="inner-icon" transform="translate(85, 75)"> <svg role="img" viewBox="0 0 24 24" xmlns="http://www.w3.org/2000/svg" id="IconChangeColor" height="234" width="234"><title>Hoppscotch</title><path d="M17.119 5.505a4.786 4.786 0 0 0-4.016-4.254c-2.188-.342-4.256.854-5.128 2.786-4.494-.278-7.784.257-7.966 1.47-.17 1.041 1.992 2.32 5.383 3.362l.001.006C5.308 8.841.333 22.807.333 22.807h18.803s-1.145-11.966-1.316-11.966c3.539.051 6-.496 6.172-1.539.178-1.188-2.662-2.682-6.873-3.797zm-.375 1.353c-.035.274-.309.479-.582.427s-.479-.308-.428-.581c.053-.273.309-.479.582-.427s.479.307.428.581zm-5.162-1.163a.67.67 0 0 1 .786-.564.67.67 0 0 1 .564.787.715.715 0 0 1-.786.564.67.67 0 0 1-.564-.787zm-3.949-.273c.051-.274.307-.479.581-.427s.479.308.427.581c-.034.273-.308.461-.581.427-.273-.051-.478-.308-.427-.581zm9.521 5.419c-.119.684-2.701.871-5.778.376-3.077-.495-5.47-1.453-5.368-2.153.068-.377.854-.599 2.051-.65-.358.067-.58.204-.614.376-.085.512 1.744 1.247 4.068 1.623 2.342.359 4.29.24 4.375-.291.018-.17-.154-.375-.479-.563 1.13.426 1.814.872 1.745 1.282z" id="mainIconPathAttribute" fill="#141414" stroke-width="0" stroke="#080808" filter="url(#shadow)"></path><filter id="shadow"><feDropShadow id="shadowValue" stdDeviation="0.4" dx="1.5" dy="0.7" flood-color="#363aba"></feDropShadow></filter><filter id="shadow"><feDropShadow id="shadowValue" stdDeviation=".5" dx="0" dy="0" flood-color="#363aba"></feDropShadow></filter><filter id="shadow"><feDropShadow id="shadowValue" stdDeviation=".5" dx="0" dy="0" flood-color="#363aba"></feDropShadow></filter><filter id="shadow"><feDropShadow id="shadowValue" stdDeviation=".5" dx="0" dy="0" flood-color="black"></feDropShadow></filter><filter id="shadow"><feDropShadow id="shadowValue" stdDeviation=".5" dx="0" dy="0" flood-color="black"></feDropShadow></filter><filter id="shadow"><feDropShadow id="shadowValue" stdDeviation=".5" dx="0" dy="0" flood-color="black"></feDropShadow></filter><filter id="shadow"><feDropShadow id="shadowValue" stdDeviation=".5" dx="0" dy="0" flood-color="black"></feDropShadow></filter></svg> </g></svg>