<?xml version="1.0" encoding="UTF-8"?>
<svg version="1.1" viewBox="0 0 1954 2048" width="525" height="550" xmlns="http://www.w3.org/2000/svg">
<path transform="translate(1084,154)" d="m0 0h109l16 1 2 13 3 3v45l-2 43-1 140-1 47-1 19-4 27-2 4h-3l1-15 2-14h-2l-2 20-5 19-3 7-2-2-2-6-2 9-2 15-4 4h-3v-2h-3l-3 12-4 10-4-2-1-1-7 16-1 7-4 1v-2h-2l-2 7-3 7-7 3v7l-2 3h-8l-4 5-4 10-3 1-4-1-3 7-1 12-5 1-3 1-5 15-2 3-6-1-1 5-2 9-4 2-2 7-1-2h-2l-2 5-7 14-4 1-1 5-3 10-4 8h-2l-2 5-5 17-9-1-2 5-1 10-4 7-3-3h-2l-4 12-2 2-2 8h-2l-1-6h-1l-2 14-4 11-3 2-3-1-1 5-5 10-2 7-2 6-3 1-1-2-8 16-2 3h-3l-6 10-18 18-12 8-11 3h-30l-16-3-9-4-2-1-9-1-14-5-11-4-1-2 2-2-1-2 1-2-18-4-4-3 1-6-29-4-1-3v-6l-14-5-4-3v-2l-6-2-16-8-10-6-18-11-15-10-13-10-10-8-5-5-3-2v-2l-4-2-6-7-6-14-2-6-1-24v-57l3-10 2-2h4l2-6 2-22 5-1 4 1 2-2 3-16 3-5h2l2 5 3-5 1-9 3-9h4l3 4 3-10 2-8 5-2 5-1 1-2 1-12 2-6 5 2 3-6 2-15 2-4 2 3 3 6h1l2-15 3-12 4 2 2 3 2-2 3-18 2-2 7 1 8-19 4-4 1 6 2-3 2-6 3-10 1-3 2-1 6-12 3-9h3l3 1 2-6 1-7 5-9v-6l3 1 3-3 1 2 1-4v-10l1-2h3l1-3 5 1 2-4 1-3 1-12 1-1 8-1 2-4 2-10 8-2 3 1-1-7 3-1v-16l3-1 7 2 2-10 2-8 1-3 4 2h2l2-5 2-18 3-4 2 11 3-4 2-11 4-7 3-8 2-1 1 5 5-10 3-9 4-2 4-5 7-14 5-1 3-5 2-7 10-5v-6l3-1v-2l10-2 2-1-2-2 1-5 4-3h11v-11z" fill="#FCFCFC"/>
<path transform="translate(217,766)" d="m0 0h252l40 1 1 5-1 6 14 2 6 3 4 4 15 5 6 3 1 3 19 8-2 4v3l15 5 10 6 17 7 3 6v2l11 1 16 6v3l-1 1 12 4 2 4h3l1 2 18 2 2 2 10 3 4 2v2h-2l-2 6 25 3 2 2-2 4 5 3 22 3 6 3 1 7 19 8 1 3 19 5 10 4 2 6 6 1 10 5-1 3h2v2l10 2 11 6 3 4 15 5 11 6 4 2v2l9 1 5 2 7 2 5 3v2l-2 2 2 2 5 1v2l4 1 4 5v2h3l4 8 2 7 1 1 1 4 2-4 3 1 2 12 1 16v31l-2 14-2 2h-7l-6 18-3 1-3-3-2 13-3 11-2 4-3 1-4-3-2 4-2 9-1 1v7l-2 1-2-1-2-5-3-1 2 4-1 3-1 11-3 6-4-1h-2l-3 7-2 13-1 2-6-1-3 6-2 13-4 6-5-4v3h-2l-2 10v7l-2 4-8-1-2 7-2 10-3 10h-2l-4-9 1 8h-3v8l-5 9h-2l-1-2-2 1-1 4-3 5-1 5-2 2-5 1-4 6-2 7-4 1h-2l-4 10-7 5-5 5-4 3h-30l-6-1 1-9-15-1-14-2-12-4 4-2h4l-1-3-25-7-5-3v-2l-5-1-23-8-3-5-9-1-7-2-1-1v-9l-1-1-17-2-8-3-1-5-5-3-13-4-1-3 2-1v-3l-24-8-14-6-8-3-1-5 1-3-10-2-4-1-3 1-10-4-24-13-22-12-2-2v-3l-10-3-17-7v-4l-9-3-11-5v-2l-9-3-26-11-6-4-1-2-9-5-15-8-8-4-4-4-9-4-10-2v-5l-13-6-5-3-10-8-10-4-2-2v-3l-6-6-7-4-5-6-5-5-4-6v-2l-4-2-4-5-3-8-1-3h-2l-1 2-4-4-4-16-3-11-2-16-1-19-1-40-1-145 1-3 7-4zm229 7v1l30 2 32 1v-2l-14-2zm461 214m3 4m11 75m0 2 1 2zm-1 3v9l2-1v-8z" fill="#FCFCFC"/>
<path transform="translate(1082,1008)" d="m0 0 18 2 15 5 5 2 15 4 15 6 16 8 15 8 8 3 1 2-6-1-2-1v2h2l4 4 7 3 12 3 14 6 1 2 20 9-1 2h-4l4 4 13 4 4 2v2h5v3l20 6 8 2v3l-7 3 5 2 16 2 1 2-1 7 4-3v2h3v-3l3 1v3h5l5 5 6 4 3 4v2l4 2 4 3-1-5 4 2 2 6 3 4v6l1 4 6 1 4 4 1 10v54l-2 12-6 11-5 12-7 18-2 5-1-2h-2v7l-3 3-6-2v2h-2l-2 15-3 8-3-1v-2l-3 1-3 13-2 11h-6l-2 5h-2l1 5-3 7-3 3-1 6h-2l-1-5-2-2v7h-2v5l-2 1v9l-4 1h-2l-1 2-2-1v4l-3 3-4 10-4 3-3 1-5 12-4 4-5 11-3 9-2 1-4-2-3 10-1 13-3 3-5-3-3 13-1 10-4 1-4-3-2 4-5 13-5 6h-1l-1-5h-1l-3 13-7 15h-2l-3 11-2 6-3 1-4-2-4 10-6 18-3 1-3-2-4 17-3 5-4-1-2 5-2 10-2 5-4-1-2-1-5 22-5 1-3 1-5 18-5 2-4 2-3 16-4 2-6-2v5l-2 5-2 8-5 5-2-3-5 10-2 6-9 3-5 2 1 4-6 6-30 1 1 5-1 4-2 1-14 1h-198l-1-1v-10l-11-1-1-1v-174l2-66 1-58 1-9 4-1 1-7 3-12 1-9 1-2 4 1h4l3-6 2-7 7-5 6-3h2l-1-2v-7l4-2h6l1-6-1-7 5-1 2 1 4-1 1-12 3-7 7 2 1-4v-7l4-13h2l2 9 4-1v-7l3-9v-10l4-2 5 2 2-4 3-15h3l2 2h2l5-25h3l3 3 3-3 3-12 3-8 2-1 2 4 5-9 6-15 4-3h2l4-12 5-6 3-7 2-8 6 1 3-7 4-10 5-8 3 1 1-6 4-13 3-7h2l1 2v6l2-1 4-12 2-12 1-2h2l4 5 3-7 1-11 3-4 5 2-1-5 2-1v2h2l-1-5 4-1 3-15h4l2 3 3-5 2-12 3-2 4 1h2l3-11 5-4 5-1 3-6zm18 6m67 25-2 2 9 1-3-2zm-139 34m314 66m12 100-2 5 1 3 2-3v-5z" fill="#FCFCFC"/>
<path transform="translate(1238,585)" d="m0 0h27l21 2 16 4 10 5 21 6 10 4-3 2 14 4 11 3 1 3-1 5 11 2 11 4 1 2h-6l3 2 12 4 12 3 2 4-4 3 3 2 14 3 2 3-2 5 14 2 23 7v1h-13l31 9 2 1-1 3 1 2 17 4 11 4 2 4 13 4 8 3v2l-6 2 5 3 16 5 9 4 17 5 12 5 7 4-3 1h-4l12 4 16 8 8 3 12 5 6 3v2l16 6 12 3 1 4-3 1 19 6 2 4-2 4 16 3 5 3-1 5 4 1 7 3 5 3 2 4-1 3 5 2h5l2 2h4v3h4l1 3-1 4 11 5 5 10 4 4 4 1 3 3 2 26 4 4h5l2 2 1 11v220l-1 7-6 2-16 1-71 2h-102l-86-2-21-1-11-2-1-3 1-6-12-2-21-6v-3l-14-6-3-3-3-5-5-3-1-2-4-2-5-5-17-7-4-4-4-3-24-7-2-5v-2h-7l-12-3-4-2-1-4-14-6-8-1-2-1v-2l4-2-8-4-5-2-8-6-18-7-4-1v-2l-5 1-8-3 1-2-13-7-11-3v-5l-9-2-13-3-4-1-1-9-15-3-4-5-10-7-10-6-9-6-10-5v2l-4-2-4-5-13-9-14-15-3-3-4-2-3-5-4-12h-3l-2-4-1-7-2-42v-25l2-16h3v2l3-3 5-19 4-6h3l7-17 4-4h3l6-14 2-3 4 1 7-21h3l1 1 3-8 2-9 1-2 3 1v2h2l2-4 3-8 6-10 2 4 3-7 4-8 7-12 2 1v2h2l3-15 2-3 1-7 2 1-1 7h2l1-7 4-8 3-9 3 1 1 2h3l3-13 2-3 6 1 3-6 3-5 2-1z" fill="#FCFCFC"/>
<path transform="translate(217,766)" d="m0 0h252l40 1 1 5-1 6 14 2 6 3 4 4 15 5 6 3 1 3 19 8-2 4v3l15 5 10 6 17 7 2 3-1 3-8-4-10-2v2l-4 1v2l-9 5-14 5-7 3-13 6-6 4h-2v2l-5 4-4 8 1 12h2l6 9 10 9 7 8 2 4 3 1v2l3 1 7 8 4 5 7 5 5 5 2 4 5 2 12 8 7 5v2h2v2l5 2 8 7 5 6 6 3 7 8 8 7 3 5 5 5 7 8v2l4 2 4 6v2h2l4 9 9 12 2 4-1 5-2 2-11 1-11-3-14-6v-2l-7-1-8-1h-10l-18-2-13-2-12-1-35-2-20-1h-16l-5 1-49 3h-7l-11 4-18 4-21 4-28 5-7 4-11 6-16 7-14 7-6 2h-12l-7-2-8-1 4 4 3 1 4 4 4 2v2l5 1 7 3v2l4 1 15 10 12 6 17 11 36 17v3l-1 1 10 5 7-1 4 4-3 1 4 4 15 5 8 3 3 3 12 5 20 9 15 6-4 1h-3l4 2 3 3 15 6 6 3v2l6 2 14 8 64 32 58 31 16 8 24 11 21 7 6 1h12l10-2 9-5 10-9 8-8 9-11 10-13 12-16 3-1 1 6h-3v8l-5 9h-2l-1-2-2 1-1 4-3 5-1 5-2 2-5 1-4 6-2 7-4 1h-2l-4 10-7 5-5 5-4 3h-30l-6-1 1-9-15-1-14-2-12-4 4-2h4l-1-3-25-7-5-3v-2l-5-1-23-8-3-5-9-1-7-2-1-1v-9l-1-1-17-2-8-3-1-5-5-3-13-4-1-3 2-1v-3l-24-8-14-6-8-3-1-5 1-3-10-2-4-1-3 1-10-4-24-13-22-12-2-2v-3l-10-3-17-7v-4l-9-3-11-5v-2l-9-3-26-11-6-4-1-2-9-5-15-8-8-4-4-4-9-4-10-2v-5l-13-6-5-3-10-8-10-4-2-2v-3l-6-6-7-4-5-6-5-5-4-6v-2l-4-2-4-5-3-8-1-3h-2l-1 2-4-4-4-16-3-11-2-16-1-19-1-40-1-145 1-3 7-4zm229 7v1l30 2 32 1v-2l-14-2z" fill="#C6C6C9"/>
<path transform="translate(1527,710)" d="m0 0 12 3 17 7 17 5 12 5 7 4-3 1h-4l12 4 16 8 8 3 12 5 6 3v2l16 6 12 3 1 4-3 1 19 6 2 4-2 4 16 3 5 3-1 5 4 1 7 3 5 3 2 4-1 3 5 2h5l2 2h4v3h4l1 3-1 4 11 5 5 10 4 4 4 1 3 3 2 26 4 4h5l2 2 1 11v220l-1 7-6 2-16 1-71 2h-102l-86-2-21-1-11-2-1-3 1-6-12-2-21-6v-3l-14-6-3-3-3-5-5-3-1-2-4-2-5-5-17-7-4-4-4-3-24-7-2-5v-2h-7l-12-3-4-2-1-4-14-6-8-1-2-1v-2l4-2-8-4-5-2-8-6-18-7-4-1v-2l-5 1-8-3 1-2-13-7-11-3v-5l-9-2-13-3-4-1v-8l6 2 10 6 6 2v2l6 1 16 9 23 11 10 5 11 4v2l9 3 9 4 13 6 13 5 34 15 13 7 10 7 6 3-3-6v-2h-2l1-6 5-3 3-1h27l29-3 8-2 9-2 10-5 4-8-1-9-7-12-10-10-7-6-5-5-2-4-4-2v-2l-4-2v-2l-5-2-8-8-6-5-4-4v-2l-4-2-13-12-10-8-3-3v-2l-4-2-7-6v-2h-2l-4-4v-2l-4-2-12-11-4-3v-2l-3-1-7-8-9-10-5-5-6-8-4-3v-2l-3-1v-2l-4-1v-2l-4-2-10-7-7-8v-3h-2l-1-6 4-8 9-3 11 1 6 3 15 4 16 4 13 4 28 5 11 3 16 4 20 4 19 2 26 3 34 2h11l26-2 9-2 10-1 17-4 22-10 17-5 22-8 13-5 11-3 8-2 15-1-3-6-7-4v-2l-4-1-7-5v-2l-4-1v-2l-4-1-10-5v-2l-6-2-10-6-22-11-13-5-10-4-15-7-19-8-16-8-23-12z" fill="#C6C6C9"/>
<path transform="translate(1325,1291)" d="m0 0 1 2-2 13-3 8-3-1v-2l-3 1-3 13-2 11h-6l-2 5h-2l1 5-3 7-3 3-1 6h-2l-1-5-2-2v7h-2v5l-2 1v9l-4 1h-2l-1 2-2-1v4l-3 3-4 10-4 3-3 1-5 12-4 4-5 11-3 9-2 1-4-2-3 10-1 13-3 3-5-3-3 13-1 10-4 1-4-3-2 4-5 13-5 6h-1l-1-5h-1l-3 13-7 15h-2l-3 11-2 6-3 1-4-2-4 10-6 18-3 1-3-2-4 17-3 5-4-1-2 5-2 10-2 5-4-1-2-1-5 22-5 1-3 1-5 18-5 2-4 2-3 16-4 2-6-2v5l-2 5-2 8-5 5-2-3-5 10-2 6-9 3-5 2 1 4-6 6-30 1 1 5-1 4-2 1-14 1h-198l-1-1v-10l-11-1-1-1v-174l2-66 1-58 1-9 4-1 1-7 3-12 1-9 1-2 4 1h4l3-6 2-7 7-5 6-3h2l-1-2v-7l4-2h6l1-6-1-7 5-1 2 1 4-1 1-12 3-7 4 1v6l-2 7v2l5-2 9-4 6 1 9 11 7 6 5 5 9 6 4 4 3 1v2l3 1 5 5v2l4 2 5 13 1 7 2 3v3l5 2 9 3 10-3 6-3 9-7 4-1 1-3 9-6 11-7 10-9h2v-2l8-6 5-4 11-11h2v-2l8-6 14-11 12-9 21-10 5-2 7 1v23l-1 16-3 14-2 18-2 9-4 16-3 18-5 24-4 17-4 15-1 7-6 20-3 9-5 22-2 12-1 22 2 6 1 5 1 11 2 3 2 8 4 9 3 5 1 11-2 27 1 14-2 8 1 5 4-4 14-28 9-12 12-20 11-17 8-14 10-16 8-15 6-9 6-10 7-11 10-18 12-20 10-13 13-19 5-7h2l2-5 9-15 14-22 2-1 2-5 3-1 2-5 8-12 1-5 3-1 3-5 1-5 3-5 3-6h2l2-5 13-22 15-25z" fill="#C6C6C9"/>
<path transform="translate(1084,154)" d="m0 0h109l16 1 2 13 3 3v45l-2 43-1 140-1 47-1 19-4 27-2 4h-3l1-15 2-14h-2l-2 20-5 19-3 7-2-2-2-6-2 9-2 15-4 4h-3v-2h-3l-3 12-4 10-4-2-1-1-7 16-1 7-4 1v-2h-2l-2 7-3 7-7 3v7l-2 3h-8l-4 5-4 10-3 1-4-3 8-10 4-6 15-15 8-12-4 2-11 12-5 5h-2v2l-8 7-6 4-7-1-2-6-1-13-1-6-2-27-3-20-3-18-2-28-2-10-2-2-5-1-9 3-5 4-7 4h-3v2l-8 7-13 13h-2v2h-2l-2 4-4 2v2l-8 7-7 7-8 6-15 11-16 11-10 8-4 3h-2v2l-12 9-9 6-9 4h-7l-1-1-1-19 1-42 3-37 2-8 5-35 4-17 2-10 5-11 4-13 8-28 5-30v-44l-1-12v-18l-1-10-1-8-3-5-2-8-3-4v-2l-6-2-1-5h-2l-1-4-1 3h-3l-2 4-8 9-1 2h-2l-2 5-9 13-14 22-9 14-8 11-9 16-4 2-1 4-15 30-1 3h-2l-1 4-5 13-6 9-9 11-7 11-6 9-18 26-10 15-7 12-7 10-10 16-14 22-21 32-8 12-4 4-9 14-1-4 4-15 5-2 5-1 1-2 1-12 2-6 5 2 3-6 2-15 2-4 2 3 3 6h1l2-15 3-12 4 2 2 3 2-2 3-18 2-2 7 1 8-19 4-4 1 6 2-3 2-6 3-10 1-3 2-1 6-12 3-9h3l3 1 2-6 1-7 5-9v-6l3 1 3-3 1 2 1-4v-10l1-2h3l1-3 5 1 2-4 1-3 1-12 1-1 8-1 2-4 2-10 8-2 3 1-1-7 3-1v-16l3-1 7 2 2-10 2-8 1-3 4 2h2l2-5 2-18 3-4 2 11 3-4 2-11 4-7 3-8 2-1 1 5 5-10 3-9 4-2 4-5 7-14 5-1 3-5 2-7 10-5v-6l3-1v-2l10-2 2-1-2-2 1-5 4-3h11v-11z" fill="#C6C6C9"/>
<path transform="translate(217,766)" d="m0 0h252l40 1 1 5-1 3-15-1-23-1h-49l-31 1v1h-176l1 5v192l1 19 5 19 8 19 8 12 6 7 7 8 7 7 3 2v2l4 2 1 3 4 2 10 8 13 9 11 7-4 1-12-6-9-8-12-5-2-2v-3l-6-6-7-4-5-6-5-5-4-6v-2l-4-2-4-5-3-8-1-3h-2l-1 2-4-4-4-16-3-11-2-16-1-19-1-40-1-145 1-3 7-4z" fill="#545761"/>
<path transform="translate(846,1350)" d="m0 0 8 1-4 6-7 10-10 13-9 12-5 10-4 14-3 28v140l-1 53v77l2 6h-9l-1-1v-174l2-66 1-58 1-9 4-1 1-7 3-12 1-9 1-2 4 1h4l3-6 2-7 7-5 6-3h2l-1-2v-7z" fill="#525560"/>
<path transform="translate(572,1240)" d="m0 0 4 2h7l15 8 17 8 22 12 30 16 16 8 24 11 21 7 6 1h12l10-2 9-5 10-9 8-8 9-11 10-13 12-16 3-1 1 6h-3v8l-5 9h-2l-1-2-2 1-1 4-3 5-1 5-2 2-5 1-4 6-2 7-4 1h-2l-4 10-7 5-5 5-4 3h-30l-6-1 1-9-15-1-14-2-12-4 4-2h4l-1-3-25-7-5-3v-2l-5-1-23-8-3-5-9-1-7-2-1-1v-9l-1-1-17-2-8-3-1-5-5-3-13-4-1-3z" fill="#C6C6C9"/>
<path transform="translate(1780,1107)" d="m0 0h1v13l-6 2-16 1-71 2h-102l-86-2-21-1-11-2-1-3 2-4 10 2 16 3 12 1 44 1h171l21-1 22-3 13-1z" fill="#545762"/>
<path transform="translate(1325,1291)" d="m0 0 1 2-2 13-3 8-3-1v-2l-3 1-3 13-2 11h-6l-2 5h-2l1 5-3 7-3 3-1 6h-2l-1-5-2-2v7h-2v5l-2 1v9l-4 1h-2l-1 2-2-1v4l-3 3-4 10-4 3-3 1-5 12-4 4-5 11-3 9-2 1-4-2-3 10-1 13-3 3-5-3-3 13-1 10-4 1-4-3-2 4-5 13-5 6h-1l-1-9 10-14 10-15 8-14 4-9 13-22 11-17 2-1 2-5 3-1 2-5 8-12 1-5 3-1 3-5 1-5 3-5 3-6h2l2-5 13-22 15-25z" fill="#4E515C"/>
<path transform="translate(846,953)" d="m0 0 6 1 20 10v2l9 1 5 2 7 2 5 3v2l-2 2 2 2 5 1v2l4 1 4 5v2h3l4 8 2 7 1 1 1 4 2-4 3 1 2 12 1 16v31l-2 14-2 2h-6l2-14 2-15v-12l-1-12-4-18-9-12-7-7-11-9-8-6-18-11-8-6-12-7z" fill="#C3C3C6"/>
<path transform="translate(572,1240)" d="m0 0 4 2h7l15 8 17 8 22 12 30 16 16 8 24 11-3 1-10-4-1 3-1-3-25-7-5-3v-2l-5-1-23-8-3-5-9-1-7-2-1-1v-9l-1-1-17-2-8-3-1-5-5-3-13-4-1-3z" fill="#C6C6C9"/>
<path transform="translate(771,449)" d="m0 0h1l1 6 4-3-1 4-18 27-7 12-13 20-17 26-8 12-4 4-9 14-1-4 4-15 5-2 5-1 1-2 1-12 2-6 5 2 3-6 2-15 2-4 2 3 3 6h1l2-15 3-12 4 2 2 3 2-2 3-18 2-2 7 1 8-19z" fill="#C7C7CA"/>
<path transform="translate(1200,970)" d="m0 0 6 2 10 6 6 2v2l6 1 16 9 23 11 10 5 11 4v2l9 3 9 4 26 13 5 5 7 4v3l-12-2-6-3-1-4-14-6-8-1-2-1v-2l4-2-8-4-5-2-8-6-18-7-4-1v-2l-5 1-8-3 1-2-13-7-11-3v-5l-9-2-13-3-4-1z" fill="#5A5D67"/>
<path transform="translate(1107,616)" d="m0 0 1 4-1 1-1 12-5 1-3 1-5 15-2 3-6-1-1 5-2 9-4 2-2 7-1-2h-2l-2 5-7 14-4 1-1 5-3 10-4 8h-2l-2 5-5 17-10-1 2-5 14-24 8-14 25-40 14-21z" fill="#4D505B"/>
<path transform="translate(1157,154)" d="m0 0h36l16 1 2 13 3 3v45l-1 20-1 1-1 20h-1l-2-85-1-5-4-2-13-1-2-2 17-1 1-3-54-2v-1z" fill="#5B5E68"/>
<path transform="translate(651,717)" d="m0 0 2 3 6 21 5 9 8 8 11 9 14 11 16 10 21 12 23 13 20 12 6 4-3 1-11-4-4-3v-2l-6-2-16-8-10-6-18-11-15-10-13-10-10-8-5-5-3-2v-2l-4-2-6-7-6-14-2-6z" fill="#535660"/>
<path transform="translate(1104,903)" d="m0 0 7 6 12 10 19 12 21 13 29 17 10 6-3 1-8-1-7-1-4-5-10-7-10-6-9-6-10-5v2l-4-2-4-5-13-9-14-15z" fill="#565963"/>
<path transform="translate(924,1007)" d="m0 0 3 1 2 12 1 16v31l-2 14-2 2h-6l2-14 2-15v-12l-2-31z" fill="#4D505B"/>
<path transform="translate(1325,1291)" d="m0 0 1 2-2 13-3 8-3-1v-2l-3 1-3 13-2 11h-6l-2 5h-2l1 5-3 7-3 3-1 6h-2l-1-5-2-2-2 3-2-1 3-6h2l2-5 13-22 15-25zm-41 67 2 2h-2z" fill="#525560"/>
<path transform="translate(971,155)" d="m0 0h101l-2 2-9 1-52 1-21 2-8 2-5 1v2h-2l-2-5z" fill="#4D505B"/>
<path transform="translate(1455,673)" d="m0 0 7 1 19 6-1 3 1 2 17 4 11 4 2 4 13 4 8 3v2l-6 2-1 2-5-2-12-6-11-6-8-4-11-6-15-8-8-4z" fill="#C0C0C3"/>
<path transform="translate(1361,1214)" d="m0 0h1v11l-2 12-6 11-5 12-7 18-2 5-1-2h-2v7l-3 3-6-2v2h-2l2-5 14-24 7-14 2-5 2 3 1-2v-8l6-18z" fill="#50535E"/>
<path transform="translate(1235,1439)" d="m0 0h2l-1 9-1 10-3 3-5-3-3 13-1 10-4 1-4-3-2 4-5 13-5 6h-1l-1-9 10-14 10-15 8-14 4-9z" fill="#50535E"/>
<path transform="translate(1776,880)" d="m0 0 4 1 1 1 1 11v26l-1 46h-1l-3-37-3-36-1-11z" fill="#4D505B"/>
<path transform="translate(1025,1722)" d="m0 0h4l2 4-1 4-2 1h-126v-1l60-1 31-1 18-2 12-3z" fill="#4D505B"/>
<path transform="translate(1200,970)" d="m0 0 6 2 10 6 6 2v2l6 1 16 9 23 11 12 6-3 1-14-5v-2l-5 1-8-3 1-2-13-7-11-3v-5l-9-2-13-3-4-1z" fill="#565963"/>
<path transform="translate(1156,556)" d="m0 0 1 3-3 7-1 7-4 1v-2h-2l-2 7-3 7-7 3v7l-2 3h-8l-4 5-4 10-3 1-4-3 8-10 21-21 10-14z" fill="#4D505B"/>
<path transform="translate(789,1288)" d="m0 0h2l-2 5-2 7-4 1h-2l-4 10-7 5-5 5-4 3h-30l-6-1 1-6 8 2 5 2h18l9-5 3-4 2-4 5-5 9-11h2z" fill="#5E606A"/>
<path transform="translate(1107,616)" d="m0 0 1 4-1 1-1 12-5 1-3 1-5 15-2 3-6-1-1 5-2 9-4 2-2 7-1-2h-2l-1 3-2-1 2-5 10-16 14-21z" fill="#4E515C"/>
<path transform="translate(680,584)" d="m0 0h2l2 5v5l-3 4-3 7-9 13-6 11h-1l1-22 5-1 4 1 2-2 3-16z" fill="#BDBDC1"/>
<path transform="translate(450,1178)" d="m0 0 5 1 11 7 16 8 17 8 19 8-4 1-4-1-3 1-10-4-24-13-22-12-2-3z" fill="#575A64"/>
<path transform="translate(305,1099)" d="m0 0 4 1 24 12 10 7 9 6 12 6v2l-7-1-11-7-17-8-5-5-9-4-10-2z" fill="#5C5F69"/>
<path transform="translate(1208,430)" d="m0 0h1v35l-4 27-2 4h-3l1-15 2-19 4-22z" fill="#535560"/>
<path transform="translate(963,846)" d="m0 0 2 3 3-3-1 5-9 10-11 11-12 8-11 3h-12l2-2 14-4 7-3 1-1 4-3 5-2 7-6 7-8 2-4z" fill="#535660"/>
<path transform="translate(1179,648)" d="m0 0 2 1-1 6-10 18-21 27-4-3 1-5 1-2 3 1v2h2l2-4 3-8 6-10 2 4 3-7 4-8z" fill="#5A5D67"/>
<path transform="translate(834,858)" d="m0 0 5 1 26 12 24 9v1h-7l-13-5-2-1-9-1-14-5-11-4-1-2 2-2z" fill="#51545F"/>
<path transform="translate(1082,1008)" d="m0 0 18 2 7 2v1h-18l-13 5-12 9-7 6 2-9 5-4 5-1 3-6z" fill="#545762"/>
<path transform="translate(1350,1047)" d="m0 0 9 3 9 2 17 9 12 8v2l-7-1-10-5-1-3-11-4-17-5-2-5z" fill="#5B5D67"/>
<path transform="translate(1403,1075)" d="m0 0 5 1v2l5 2 9 8 24 14 11 5v1l-8-1-13-3-1-4-14-6-3-3-3-5-5-3-1-2-4-2z" fill="#535560"/>
<path transform="translate(1080,1695)" d="m0 0 1 4-2 6-9 3-5 2 1 4-6 6h-19l4-2 12-5 6-5 12-8z" fill="#565964"/>
<path transform="translate(1218,170)" d="m0 0 4 1v18l-1 15-2 3-2 7h-1v-34z" fill="#C7C7CA"/>
<path transform="translate(1197,1502)" d="m0 0h1v6l-7 16-3 1-3 11-2 6-3 1-3-2 1-6 12-21 5-8z" fill="#565963"/>
<path transform="translate(1260,1400)" d="m0 0 1 3-4 9-4 4-5 11-3 9-2 1-4-2-2 4h-2l2-5 14-23 6-9z" fill="#4F525D"/>
<path transform="translate(997,799)" d="m0 0 1 2-6 12-2 7-2 6-3 1-1-2-8 16-2 3-5 1 2-5 7-10 2-5 2-4 11-16z" fill="#565964"/>
<path transform="translate(572,1240)" d="m0 0 4 2 6 1 1 4 5 2 12 6 5 3 1 2h-10l-8-3-1-5-5-3-13-4-1-3z" fill="#4F525D"/>
<path transform="translate(632,1275)" d="m0 0 6 2 4 1 17 8 11 6 4 1v2l4 2-8-1-7-3-1-3-5-1-23-8-2-3z" fill="#545761"/>
<path transform="translate(1172,950)" d="m0 0 10 5 20 12-3 1-8-1-7-1-4-5-8-6-2-4z" fill="#656770"/>
<path transform="translate(694,1302)" d="m0 0 8 2 6 3v2l3-1 4 2v2h-13l-12-3-5-2 4-2h5z" fill="#51545E"/>
<path transform="translate(524,1214)" d="m0 0 16 8 17 9v1h-6l-11-5-16-6-1-5z" fill="#535660"/>
<path transform="translate(1184,509)" d="m0 0 2 1-3 19-4 4h-3v-2h-3l2-5 4-7z" fill="#535660"/>
<path transform="translate(1197,483)" d="m0 0h1v9l-4 14-3 7-2-2-1-9 7-14z" fill="#565963"/>
<path transform="translate(1325,1291)" d="m0 0 1 2-2 13-3 8-3-1v-2l-5 2 2-5z" fill="#4F525D"/>
<path transform="translate(1200,970)" d="m0 0 6 2 10 6 6 2v2l5 1-3 1-14-4-10-2z" fill="#4F525D"/>
<path transform="translate(1555,721)" d="m0 0 7 1 11 3 12 5 7 4-3 1-10-2-11-5-13-6z" fill="#585A65"/>
<path transform="translate(692,565)" d="m0 0 3 1 3 6-2 5-5 7h-2l-1-9 3-9z" fill="#545762"/>
<path transform="translate(651,717)" d="m0 0 2 3 6 21 5 9 9 9-1 2-3-2v-2l-4-2-6-7-6-14-2-6z" fill="#5C5F69"/>
<path transform="translate(1122,1630)" d="m0 0h1l-1 7-3 12-5 2-5 1 3-6 7-11z" fill="#575A64"/>
<path transform="translate(706,550)" d="m0 0 6 1-2 5-10 15-1-4 4-15z" fill="#545761"/>
<path transform="translate(1083,654)" d="m0 0h2l-2 7-2 6-3 1-2 7-1-2h-2l-1 3-2-1 2-5 9-14z" fill="#555862"/>
<path transform="translate(897,241)" d="m0 0h1v12l-8 12h-2l1-8 4-7 3-8z" fill="#595C66"/>
<path transform="translate(1135,1022)" d="m0 0 6 1 13 6 16 8 5 3-4 1-36-18z" fill="#4F525D"/>
<path transform="translate(828,1231)" d="m0 0 1 2-3 12-3 10h-2l-2-4 1-7z" fill="#4E515C"/>
<path transform="translate(783,830)" d="m0 0 4 2 13 8v1h-10l-7-2z" fill="#51545E"/>
<path transform="translate(979,825)" d="m0 0h2l-2 5-7 10-2 5-2 2-4 3-1-2 3-7 2-1 4-7 4-4 1-3z" fill="#B3B4B8"/>
<path transform="translate(680,584)" d="m0 0h2l2 5v5l-6 8-2-1v-8l3-7z" fill="#585A65"/>
<path transform="translate(551,1227)" d="m0 0 9 3 21 11 1 2h-6l-5-2-1-3-15-5v-2l-4-2z" fill="#C1C1C4"/>
<path transform="translate(1107,616)" d="m0 0 1 4-1 1-1 12-5 1-4 1-1-2z" fill="#51545E"/>
<path transform="translate(740,488)" d="m0 0 4 2 1 1v6l-4 5-3 6-2-1 3-17z" fill="#4F525D"/>
<path transform="translate(670,862)" d="m0 0h9l2 2 10 3 4 2v2l-6 1-19-9z" fill="#545761"/>
<path transform="translate(905,1106)" d="m0 0 1 2-4 15-2 4-3 1-3-4 8-13z" fill="#4D505B"/>
<path transform="translate(1197,967)" d="m0 0 8 1 17 10 6 4-2 1-4-1v-2l-6-1-14-8h-3v-2h-2z" fill="#C1C1C4"/>
<path transform="translate(853,1190)" d="m0 0h1l-1 13-4 6-4-4 2-5z" fill="#4D505B"/>
<path transform="translate(1643,763)" d="m0 0 9 2 15 4 1 4-6 1-19-10z" fill="#535560"/>
<path transform="translate(1204,1058)" d="m0 0 5 1 12 5 1 2 20 9-1 2-5-1-12-7-16-8z" fill="#575A64"/>
<path transform="translate(753,471)" d="m0 0 4 1 2 4-8 12h-1l1-15z" fill="#51545F"/>
<path transform="translate(819,365)" d="m0 0h3v2l2 1-5 8-3 5-2-1v-10l1-2h3z" fill="#575A64"/>
<path transform="translate(960,166)" d="m0 0 8 1v3l-9 6-4-2 1-5z" fill="#545761"/>
<path transform="translate(665,606)" d="m0 0 5 1 1 3-7 14h-1v-17z" fill="#4E515C"/>
<path transform="translate(1353,1156)" d="m0 0 6 2 2 3 1 10v13h-1l-4-18z" fill="#4E515C"/>
<path transform="translate(1218,170)" d="m0 0 4 1v18l-1 6h-1l-2-10-1-12z" fill="#545762"/>
<path transform="translate(839,1212)" d="m0 0 2 1-1 10-2 6-7-2 4-8z" fill="#4D505B"/>
<path transform="translate(1037,1049)" d="m0 0 3 1 1 6-10 14-2-4 4-1 3-15z" fill="#585A65"/>
<path transform="translate(960,850)" d="m0 0h2l-2 4-9 10-9 7-6 1 4-4 5-3 5-5 7-8z" fill="#B5B5B9"/>
<path transform="translate(1031,739)" d="m0 0 1 3-1 10-4 7-4-4 2-5z" fill="#4D505B"/>
<path transform="translate(1170,1549)" d="m0 0h1l-1 8-4 12-3 1-2-3 1-5 5-6z" fill="#535660"/>
<path transform="translate(1171,532)" d="m0 0h1l-1 7-4 13h-4l-1-4z" fill="#535661"/>
<path transform="translate(729,506)" d="m0 0 2 3 2 6-6 11h-1l1-16z" fill="#555862"/>
<path transform="translate(878,1148)" d="m0 0h1v10l-3 6-4-1-1-4z" fill="#4D505B"/>
<path transform="translate(1070,675)" d="m0 0 1 3-7 14-4 1-1 2-1-2 10-16z" fill="#50535E"/>
<path transform="translate(1435,662)" d="m0 0 10 2 16 5v1h-11l-6-2-9-5z" fill="#9E9FA5"/>
<path transform="translate(771,449)" d="m0 0h1v8l-7 11-3 2 2-8 6-12z" fill="#50535E"/>
<path transform="translate(1107,1655)" d="m0 0h1v11l-3 5-6-2z" fill="#545761"/>
<path transform="translate(806,384)" d="m0 0 3 1 1 2v6l-7 11h-1l1-9 3-5z" fill="#50535E"/>
<path transform="translate(1270,1095)" d="m0 0 19 4 3 3-4 2-5-1-13-7z" fill="#4D505B"/>
<path transform="translate(655,635)" d="m0 0h3l-1 5-6 17h-1v-10l3-10z" fill="#4D505B"/>
<path transform="translate(793,410)" d="m0 0 2 1 1 6-5 6-3 6-3 3 1-6 4-9z" fill="#5D606A"/>
<path transform="translate(726,1317)" d="m0 0 8 2 5 2 7 1v1l-15 1-6-1z" fill="#4D505B"/>
<path transform="translate(812,1257)" d="m0 0h3v5l-5 9h-2l-2-5z" fill="#4D505B"/>
<path transform="translate(765,818)" d="m0 0 12 7 6 4-3 1-11-4-4-3v-2l-2-1z" fill="#5C5E68"/>
<path transform="translate(952,177)" d="m0 0h3l-2 4-9 7-2-4 1-3h2v-2z" fill="#585A65"/>
<path transform="translate(997,1109)" d="m0 0h2l1 6-8 14-1-4 5-14z" fill="#565963"/>
<path transform="translate(1147,568)" d="m0 0v3l-8 11-18 18v-3l16-16 8-11z" fill="#C7C7CA"/>
<path transform="translate(865,1170)" d="m0 0h1v9l-2 6-4-1-2-1 2-5z" fill="#4D505B"/>
<path transform="translate(789,1288)" d="m0 0h2l-2 5-2 7-4 1-4-1 6-8h2z" fill="#585B65"/>
<path transform="translate(614,1267)" d="m0 0 7 2 8 5-4 2-9-2-2-2z" fill="#4E515C"/>
<path transform="translate(981,827)" d="m0 0 1 3-6 11-2 3-5 1 2-5 9-12z" fill="#585B65"/>
<path transform="translate(1349,612)" d="m0 0 9 1 8 3-1 5-5-2-11-6z" fill="#50535E"/>
<path transform="translate(803,1270)" d="m0 0h2l-1 4-3 5-1 5-4 2-3-2 8-12h2z" fill="#5B5D67"/>
<path transform="translate(1279,1009)" d="m0 0 9 3v2l9 3 7 4v2l-11-3-9-7-5-2z" fill="#6D6F78"/>
<path transform="translate(1308,595)" d="m0 0 11 3 16 5 8 3-3 1-8-2-10-4-9-2-5-2z" fill="#6F717A"/>
<path transform="translate(1156,556)" d="m0 0 1 3-3 7-1 7-4 1v-2l-3-1z" fill="#4F515C"/>
<path transform="translate(914,222)" d="m0 0 2 1-11 17-1-4 3-9 4-2z" fill="#62646E"/>
<path transform="translate(1082,1008)" d="m0 0 13 1v1l-13 3-10 3 3-5z" fill="#A9A9AE"/>
<path transform="translate(1761,846)" d="m0 0 4 1 3 3v9l-5-5-4-7z" fill="#4F525C"/>
<path transform="translate(1743,829)" d="m0 0 9 3 7 14-7-6-9-10z" fill="#555862"/>
<path transform="translate(1132,1618)" d="m0 0h1v8l-2 4-7-1 2-4 3-1 2-5z" fill="#575A64"/>
<path transform="translate(1272,1376)" d="m0 0h3l-2 5-9 14-3 1 2-6z" fill="#C4C4C7"/>
<path transform="translate(1007,782)" d="m0 0 1 4-4 11-3 2-3-2z" fill="#4F525D"/>
<path transform="translate(1022,1073)" d="m0 0 5 2-4 7-4 5v-10z" fill="#535661"/>
<path transform="translate(1087,791)" d="m0 0 2 1-1 8-3 22h-1v-14l2-16z" fill="#4D505B"/>
<path transform="translate(717,529)" d="m0 0 5 5-4 8h-3v-7z" fill="#51545F"/>
<path transform="translate(1156,1575)" d="m0 0h1l-1 10-3 5-5-1z" fill="#535661"/>
<path transform="translate(1093,888)" d="m0 0h2l4 8 5 6-1 3-4-2-3-5z" fill="#535661"/>
<path transform="translate(734,892)" d="m0 0h9l6 3 1 5-10-4-6-3z" fill="#4F525D"/>
<path transform="translate(855,1336)" d="m0 0 5 1 1 3-5 9-1-2-1-10z" fill="#51545F"/>
<path transform="translate(1671,777)" d="m0 0 10 2 5 3-1 3-5-1-9-6z" fill="#4D505B"/>
<path transform="translate(1093,1678)" d="m0 0 2 1-2 8-5 5-1-5z" fill="#595C66"/>
<path transform="translate(1009,1090)" d="m0 0h2l2 3-1 5-4 6h-1v-9z" fill="#51545F"/>
<path transform="translate(1086,864)" d="m0 0h1l4 18v4h-2l-2-4-1-7z" fill="#4D505B"/>
<path transform="translate(1513,699)" d="m0 0h6l13 5v2h-7l-12-6z" fill="#5E616A"/>
<path transform="translate(881,261)" d="m0 0h1l1 13-1 3h-2l-1 2v-14z" fill="#51545F"/>
<path transform="translate(883,968)" d="m0 0 9 2 6 4v2l-7-1-4-2-1-2-5-1z" fill="#4F525D"/>
<path transform="translate(626,840)" d="m0 0 11 3 8 4-1 2-6-1-12-7z" fill="#4D505B"/>
<path transform="translate(1323,1124)" d="m0 0 6 2 5 6v2l3 1-2 1-9-6z" fill="#93949A"/>
<path transform="translate(557,800)" d="m0 0 6 1 11 5-1 3-5-1-11-7z" fill="#4F525D"/>
<path transform="translate(812,848)" d="m0 0 6 1 10 5v1l-9-1-6-3z" fill="#52555F"/>
<path transform="translate(881,1295)" d="m0 0h2l1 7-6 9-1-3z" fill="#4D505B"/>
<path transform="translate(889,1132)" d="m0 0 1 3-2 4v7l-2 1-2-1-1-6z" fill="#4D505B"/>
<path transform="translate(916,1086)" d="m0 0 1 3-4 12-3 1-1-4z" fill="#4D505B"/>
<path transform="translate(1397,638)" d="m0 0 9 1 5 3-1 3-6-2-7-4z" fill="#585A65"/>
<path transform="translate(855,305)" d="m0 0 5 2 1 3-4 6-2-3-1-7z" fill="#4D505B"/>
<path transform="translate(1692,790)" d="m0 0 8 1 5 3v3l-3 1-10-6z" fill="#555862"/>
<path transform="translate(657,742)" d="m0 0 3 1 5 8 8 8-1 2-3-2v-2l-4-2-6-7z" fill="#696B74"/>
<path transform="translate(1049,1034)" d="m0 0 5 2-3 5-5 5 1-10z" fill="#525560"/>
<path transform="translate(1144,1596)" d="m0 0 2 2-1 6-2 5-4-1 2-5z" fill="#595B66"/>
<path transform="translate(869,1317)" d="m0 0 4 1-2 5-4 7h-1v-6z" fill="#4D505B"/>
<path transform="translate(783,917)" d="m0 0 9 2 7 3 2 5-5-2-13-7z" fill="#50525D"/>
<path transform="translate(829,346)" d="m0 0 7 1-1 3h-4l-2 6h-1v-9z" fill="#4D505B"/>
<path transform="translate(894,1275)" d="m0 0 4 2-2 5-3 3-1-1v-7z" fill="#50535D"/>
<path transform="translate(919,1234)" d="m0 0 3 2-1 6-5 5 2-12z" fill="#4D505B"/>
<path transform="translate(422,1163)" d="m0 0 5 2 10 6-3 1-12-5z" fill="#595C66"/>
<path transform="translate(922,206)" d="m0 0h2l1 3-7 11-1-4z" fill="#595C66"/>
<path transform="translate(968,1158)" d="m0 0 4 1-1 4-5 8-1-2z" fill="#5A5D67"/>
<path transform="translate(1147,690)" d="m0 0 3 1v2l2 1h-2v5l-2 1-3-3 1-5z" fill="#686A73"/>
<path transform="translate(688,579)" d="m0 0h1v5h2l-2 5-5 5 2-9z" fill="#C3C3C6"/>
<path transform="translate(874,875)" d="m0 0 15 5v1h-7l-10-4z" fill="#6D6F78"/>
<path transform="translate(1496,690)" d="m0 0 8 1 6 3 1 2-7-1-8-4z" fill="#575A64"/>
<path transform="translate(1391,636)" d="m0 0 6 1 1 2 10 5v2l-4-1-12-7z" fill="#C3C3C6"/>
<path transform="translate(720,539)" d="m0 0 1 2-8 12-1-2-2-1 3-1 2-7 4-2z" fill="#C3C3C6"/>
<path transform="translate(402,1153)" d="m0 0 5 1 11 6-3 1-13-6z" fill="#585A65"/>
<path transform="translate(600,826)" d="m0 0 9 3 6 3-1 3-14-8z" fill="#50535E"/>
<path transform="translate(1372,625)" d="m0 0 7 1 9 4-3 1-9-3z" fill="#50535E"/>
<path transform="translate(869,286)" d="m0 0 3 1-1 5-3 6h-1v-7z" fill="#50535E"/>
<path transform="translate(815,1726)" d="m0 0 7 3 7 1v1h-14z" fill="#4D505B"/>
<path transform="translate(1710,802)" d="m0 0 5 1 5 3 2 4-5-2-7-5z" fill="#595C66"/>
<path transform="translate(1145,697)" d="m0 0h3l1 4-5 6-1-3z" fill="#BEBEC2"/>
<path transform="translate(937,191)" d="m0 0 2 1-5 6h-2l-1-4 2-2z" fill="#565863"/>
<path transform="translate(1279,1365)" d="m0 0h3l-2 5-4 4v-4z" fill="#AFB0B4"/>
<path transform="translate(962,1175)" d="m0 0 1 2-6 10-1-2 3-8z" fill="#AFB0B4"/>
<path transform="translate(540,790)" d="m0 0 5 1 9 4v2l-5-1-9-5z" fill="#4D505B"/>
<path transform="translate(844,323)" d="m0 0 5 1 1 3-5-1z" fill="#73757D"/>
<path transform="translate(307,1107)" d="m0 0 7 1 1 3-8-2z" fill="#787A82"/>
<path transform="translate(722,882)" d="m0 0 8 1v2l-7-1z" fill="#5E616A"/>
<path transform="translate(1260,578)" d="m0 0h8l1 2-9-1z" fill="#565963"/>
<path transform="translate(1272,1012)" d="m0 0 6 1 2 2-6-1z" fill="#63656F"/>
<path transform="translate(866,877)" d="m0 0h5l1 2-6-1z" fill="#ABACB1"/>
<path transform="translate(594,820)" d="m0 0 5 2-3 1-2-1z" fill="#757780"/>
<path transform="translate(1282,1014)" d="m0 0 5 2-2 1-3-1z" fill="#6B6D76"/>
<path transform="translate(1239,995)" d="m0 0 5 1 1 2-6-2z" fill="#4D505B"/>
<path transform="translate(1234,993)" d="m0 0 5 1-2 1z" fill="#4D505B"/>
<path transform="translate(1245,998)" d="m0 0 4 2-4-1z" fill="#4D505B"/>
<path transform="translate(1243,578)" d="m0 0h5v1h-5z" fill="#4D505B"/>
<path transform="translate(1239,577)" d="m0 0 3 1-3 1z" fill="#4D505B"/>
<path transform="translate(1254,1415)" d="m0 0h2v2h-2z" fill="#4D505B"/>
<path transform="translate(926,884)" d="m0 0v3z" fill="#8A8B92"/>
<path transform="translate(718,882)" d="m0 0h2v2h-2z" fill="#6B6D76"/>
<path transform="translate(862,875)" d="m0 0 3 1h-3z" fill="#C7C7CA"/>
<path transform="translate(628,1276)" d="m0 0h2l-1 2z" fill="#4D505B"/>
<path transform="translate(1338,1284)" d="m0 0" fill="#C7C7CA"/>
<path transform="translate(510,1211)" d="m0 0 2 1z" fill="#8A8B92"/>
<path transform="translate(320,1112)" d="m0 0 2 1z" fill="#C7C7CA"/>
<path transform="translate(318,1111)" d="m0 0 2 1z" fill="#4D505B"/>
<path transform="translate(1377,1062)" d="m0 0 2 1z" fill="#4D505B"/>
<path transform="translate(917,992)" d="m0 0" fill="#4D505B"/>
<path transform="translate(885,886)" d="m0 0 2 1z" fill="#C7C7CA"/>
<path transform="translate(877,881)" d="m0 0 2 1z" fill="#C7C7CA"/>
<path transform="translate(671,859)" d="m0 0 2 1z" fill="#C7C7CA"/>
<path transform="translate(667,858)" d="m0 0 2 1z" fill="#4D505B"/>
<path transform="translate(983,1129)" d="m0 0" fill="#C7C7CA"/>
<path transform="translate(1369,1060)" d="m0 0" fill="#C7C7CA"/>
<path transform="translate(1191,1048)" d="m0 0" fill="#4D505B"/>
<path transform="translate(1271,1011)" d="m0 0" fill="#4D505B"/>
<path transform="translate(1233,992)" d="m0 0" fill="#4D505B"/>
<path transform="translate(1231,991)" d="m0 0" fill="#4D505B"/>
<path transform="translate(879,884)" d="m0 0" fill="#C7C7CA"/>
<path transform="translate(781,429)" d="m0 0" fill="#C7C7CA"/>
<path transform="translate(1220,205)" d="m0 0" fill="#C7C7CA"/>
</svg>
