<svg xmlns="http://www.w3.org/2000/svg" fill="none" viewBox="0 0 550 1450" width="550" height="1450"><defs><clipPath id="assetClipPath_IwFriWIX"><path d="m0 0 h 511.475 a 0,0 0 0 1 0,0 v 1113.069 a 0,0 0 0 1 -0,0 h -511.475 a 0,0 0 0 1 -0,-0 v -1113.069 a 0,0 0 0 1 0,-0 z" id="path_wwuLBPHS" fill="#ffffff" /></clipPath><clipPath id="assetClipPath_A2tpZPYF"><path d="m0 0 h 180.381 a 0,0 0 0 1 0,0 v 277.341 a 0,0 0 0 1 -0,0 h -180.381 a 0,0 0 0 1 -0,-0 v -277.341 a 0,0 0 0 1 0,-0 z" id="path_iqC7C1Mp" fill="#ffffff" /></clipPath></defs><g transform="translate(508 352) rotate(0 254 551.5) scale(-1 1)" opacity="1" data-asset-index="0"><g clip-path="url(#assetClipPath_IwFriWIX)" transform="scale(0.9932059240432083 0.9932059240432083)" data-asset-index="0"><defs data-selector="defs[1]" /><path d="m279.975 782.694c.205-.097.315-.111.345-.167 2.323-4.408 6.304-5.685 10.934-6.129 7.13-.683 13.844.731 20.339 3.485 6.775 2.872 13.237 6.4 19.863 9.587 5.976 2.875 11.903 5.856 18.113 8.221 5.405 2.058 11.047 3.149 16.683 4.315 6.898 1.428 13.873 2.303 20.842 3.258 4.998.685 9.912 1.753 14.594 3.707.376.157.741.298 1.358-.094-2.208-2.829-3.974-5.945-6.301-8.675-5.878-6.894-12.397-13.13-19.256-19.041-5.027-4.332-9.913-8.829-14.805-13.314-5.661-5.189-11.497-10.175-17.317-15.181-.665-.572-10.605-8.55-14.058-11.136-9.959-7.46-18.828-16.115-27.378-25.107-5.623-5.913-10.995-12.05-15.841-18.63-4.328-5.877-8.064-12.111-11.172-18.709-4.395-9.332-9.218-18.443-13.992-27.582-4.332-8.293-7.962-16.916-11.719-25.478-.835-1.903-1.615-3.834-2.549-5.687-2.501-4.96-4.361-10.082-4.934-15.673-.285-2.78-1.188-5.498-2.943-7.765-2.775-3.583-4.163-7.735-4.932-12.086-1.115-6.311-2.925-12.416-4.777-18.537-2.09-6.908-3.046-14.052-3.219-21.273-.346-14.414.653-28.748 2.327-43.068 1.819-15.561 3.756-31.112 5.107-46.728.854-9.878 1.805-19.747 2.545-29.635.927-12.378 1.105-24.766.578-37.162-.101-2.381-.249-4.786-.992-7.218-1.944.744-3.486 2.015-5.122 3.106-6.194 4.132-12.144 8.591-17.634 13.63-2.728 2.504-4.997 5.395-6.704 8.699-.398.769-.772 1.495-.65 2.48.185 1.497-1.123 2.442-2.613 1.978-.595-.185-1.144-.565-1.667-.924-3.671-2.521-6.662-5.715-9.213-9.344-3.829-5.446-6.849-11.358-9.98-17.208-2.377-4.44-4.776-8.868-7.168-13.299-.183-.338-.285-.75-.917-.935-.316 1.279-.478 2.555-.588 3.868-.805 9.645-.746 19.342-1.597 28.977-1.1 12.439-1.662 24.891-1.567 37.373.055 7.309.855 14.519 3.23 21.487 1.808 5.303 4.061 10.425 6.34 15.534 3.72 8.337 8.063 16.34 12.991 24.026 8.4 13.102 14.142 27.368 18.502 42.244 3.738 12.754 6.248 25.78 8.585 38.839 1.97 11.011 3.875 22.036 5.612 33.085.88 5.6 1.888 11.196 2.25 16.869.073 1.145.241 1.981 1.629 2.155 1.368.171 1.778 1.102 1.602 2.44-.282 2.151-.516 4.32-1.866 6.115-.967 1.286-.534 2.778-.804 4.162-.171.876.862 1.024 1.304 1.963.295-.94.421-1.736 1.216-2.08.875-.378 1.657-.35 1.953.63 1.617 5.359 5.104 9.756 7.498 14.712 1.527 3.162 2.633 6.525 4.548 9.505.23.358.614.919-.037 1.206-.589.26-.792-.364-1.046-.741-.486-.723-.763-1.586-1.768-2.456.589 1.823 1.056 3.304 1.547 4.777.81 2.43 1.457 4.902 1.863 7.429.125.778.044 1.593.02 2.39-.021.692-.368 1.191-.989 1.525-1.011.543-2.185-.464-3.274.605-.968.951-1.999-.307-2.976-.835 0 2.539.007 4.915-.004 7.291-.003.636.022 1.279-.248 1.887-.78 1.759-2.873 2.093-3.71.396-1.869-3.788-4.891-6.894-6.179-11.032-1.24-3.981-2.212-7.998-2.854-12.113-1.065-6.83-1.271-13.685-.711-20.564.136-1.669.459-3.323.683-4.985.128-.948.37-1.87-.874-2.427-.785-.351-.923-1.222-.83-2.088.172-1.604.455-3.186 1.302-4.576.841-1.379.93-2.74.655-4.34-2.651-15.436-5.099-30.907-7.84-46.326-2.587-14.552-5.16-29.117-9.402-43.317-4.46-14.93-10.353-29.207-18.813-42.372-7.47-11.625-12.958-24.225-17.792-37.123-3.167-8.45-3.825-17.275-3.785-26.196.058-13.123 1.035-26.202 1.883-39.287.248-3.829.344-7.67.433-11.507.152-6.557.458-13.104 1.291-19.612.233-1.818-.044-3.423-.917-5.051-2.153-4.016-4.045-8.161-5.811-12.364-1.523-3.625-2.065-7.327-1.481-11.248 1.117-7.506.883-14.988-.834-22.396-.43-1.855-.827-3.762-2.646-5.06 1.198-.583 1.92-.045 2.6.655 1.032 1.063 1.586 2.389 2.035 3.764 1.021 3.132 1.679 6.347 1.832 9.631.178 3.833.356 7.682-.228 11.498-.776 5.071.017 9.86 2.335 14.423 1.181 2.324 2.073 4.801 3.568 6.968.784-.402.542-1.041.588-1.548.684-7.579.732-15.176.436-22.77-.169-4.337-1.268-8.53-2.743-12.597-.391-1.079.048-2.311-.503-3.152-.576-.881-1.784-1.29-2.539-2.14-2.152-2.422-3.688-5.245-4.976-8.161-2.258-5.113-4.294-10.324-6.425-15.493-.212-.515-.322-1.126-.672-1.52-1.687-1.902-1.831-4.159-1.72-6.527.067-1.436.034-2.88-.027-4.318-.129-3.054-1.574-6.139-3.627-7.815-.852.471-.965 1.404-1.263 2.185-2.964 7.766-5.624 15.636-8.138 23.56-2.294 7.232-4.287 14.572-7.286 21.568-.6 1.401-1.258 2.776-2.397 3.838-1.099 1.025-2.351 1.716-3.906 1.246-1.559-.47-2.286-1.718-2.533-3.21-.261-1.575-.32-3.172-.264-4.779.21-6.023 1.374-11.9 2.642-17.763.164-.759.557-1.495.209-2.455-.879.702-1.356 1.604-1.83 2.502-1.456 2.758-2.798 5.565-3.881 8.5-.579 1.569-1.356 3.067-2.076 4.582-.419.882-1.037 1.6-1.903 2.1-1.871 1.079-3.467.511-4.163-1.509-.371-1.075-.424-2.188-.425-3.314-.006-6.88 1.534-13.471 3.682-19.953 3.213-9.696 8.077-18.605 13.087-27.441 3.358-5.923 6.132-12.119 8.721-18.403.83-2.015-.159-4.272-2.136-5.12-.609-.261-.885.157-1.216.472-1.854 1.764-3.707 3.53-5.545 5.311-4.138 4.008-8.077 8.205-11.953 12.466-3.936 4.326-8.177 8.333-12.856 11.859-1.925 1.451-3.976 2.655-6.286 3.426-1.416.473-2.838.516-4.263.31-2.056-.298-2.704-1.487-1.96-3.413.616-1.597 1.666-2.903 2.815-4.14 3.169-3.41 6.818-6.284 10.391-9.239 6.222-5.147 12.641-10.052 18.539-15.593 5.982-5.621 11.372-11.683 15.349-18.916 1.976-3.595 3.728-7.256 3.915-11.458.011-.238.072-.473.11-.71.147-.915 1.116-1.799.492-2.694-.471-.675-1.377-1.048-2.089-1.555-.325-.232-.627-.512-.981-.686-1.66-.82-1.986-2.131-1.983-3.927.009-5.71.808-11.315 1.856-16.895 1.434-7.638-1.911-14.629-8.846-18.24-3.985-2.075-8.289-3.345-12.485-4.886-3.909-1.436-7.731-3.054-11.114-5.554-1.359-1.004-2.639-2.089-3.621-3.472-.821-1.155-.812-1.911-.001-2.53.875-.668 1.739-.7 2.562.152 3.495 3.622 7.982 5.504 12.609 7.124 2.329.815 4.676 1.581 7.117 2.403.25-.736-.254-1.125-.471-1.568-3.591-7.343-4.124-14.673.06-21.992.278-.486.547-.976.829-1.46 1.189-2.043 1.164-2.109-1.195-2.82-7.969-2.401-16.124-3.258-24.418-2.886-2.487.111-4.929.543-7.26 1.451-3.077 1.199-3.71 2.815-2.212 5.806.932 1.861 2.14 3.559 3.361 5.245 4.453 6.151 9.066 12.202 12.668 18.917 2.375 4.428 4.837 8.819 5.947 13.818.543 2.445-.146 4.204-2.125 5.603-3.716 2.625-7.835 3.439-12.262 2.64-4.31-.777-8.14-2.822-11.956-4.836-7.567-3.994-15.178-7.892-23.196-10.921-7.42-2.804-14.944-5.21-22.937-5.756-2.156-.147-4.302-.372-6.445.121-.54.124-1.105.209-1.708-.145.121-1.076.992-1.022 1.732-1.168 5.767-1.137 11.469-.586 17.12.742 11.507 2.706 22.344 7.164 32.801 12.617 4.531 2.363 8.986 4.9 13.901 6.446 1.616.508 3.255.844 4.948.801 2.545-.065 3.524-.91 3.751-3.387.377-4.121-.05-8.033-2.133-11.81-3.789-6.869-7.829-13.564-12.301-20.009-1.683-2.426-3.349-4.879-4.481-7.64-1.575-3.841-.654-6.495 3-8.381 2.734-1.411 5.684-2.178 8.727-2.434 9.18-.771 18.205.123 27.029 2.812 4.257 1.297 4.59 2.026 2.274 5.81-3.715 6.071-3.771 12.393-1.568 18.907 1.032 3.051 3.166 5.247 5.619 7.291 2.448 2.039 5.465 3.216 7.726 5.523 1.654 1.688 2.942 3.563 3.922 5.685.447.968.548 1.982.555 3.037.02 3.408-.787 6.658-1.847 9.854-1.596 4.811-2.627 9.705-2.642 14.806-.004 1.426.311 2.442 1.61 3.139.982.527 1.86 1.247 2.832 1.797 1.139.644 1.696 1.686 1.314 2.81-1.08 3.179-.977 6.612-2.423 9.727-3.713 8-8.757 14.996-14.959 21.258-8.077 8.155-17.293 14.954-26.025 22.33-1.893 1.599-3.719 3.279-5.518 4.984-.808.766-1.518 1.648-2.186 2.543-.462.618-1.243 1.429-.79 2.103.607.903 1.723.493 2.627.203 2.414-.774 4.365-2.326 6.286-3.888 4.165-3.388 8.036-7.098 11.607-11.102 5.063-5.678 10.518-10.964 15.994-16.233.863-.831 1.67-1.72 2.535-2.549 1.459-1.397 2.865-1.502 4.535-.372.33.223.654.464.947.734 3.579 3.286 3.88 4.089 1.979 8.465-3.354 7.721-7.574 14.969-11.716 22.269-5.462 9.626-10.207 19.563-12.607 30.459-.705 3.203-1.171 6.447-1.349 9.727-.064 1.17-.083 2.343.222 3.644.924-.424.957-1.216 1.2-1.815 1.681-4.15 3.322-8.31 5.702-12.137 1.061-1.706 2.285-3.277 3.56-4.817.254-.306.536-.602.852-.84.844-.638 1.774-1.277 2.84-.672 1.006.571.862 1.7.7 2.602-.535 2.988-1.175 5.957-1.809 8.927-1.087 5.091-1.918 10.213-1.918 15.436 0 1.564-.042 3.159 1.006 4.766 1.23-1.096 1.717-2.434 2.226-3.737 2.183-5.59 3.801-11.366 5.571-17.09 3.023-9.775 6.499-19.389 9.909-29.032 1.646-4.656 6.956-4.754 9.732-2.168 2.566 2.389 4.025 5.389 4.31 8.844.203 2.462-.022 4.956.052 7.432.038 1.255-1.165 2.335-.754 3.407.403 1.052 1.334 1.925 1.79 3.051 1.947 4.814 3.735 9.695 6.055 14.352 1.18 2.369 2.502 4.639 4.209 6.678 1.307 1.561 2.95 2.395 4.971 2.54.876.063 1.748.19 2.624.266 2.302.198 4.07 1.341 5.451 3.121.782 1.008 1.666 1.948 2.227 3.116.182.38.28.757-.065 1.093-.406.396-.882.423-1.282.048-.815-.766-1.648-1.527-2.362-2.383-1.815-2.176-4.096-2.9-6.783-2.469-.465.666.001 1.121.17 1.616 2.037 5.984 2.621 12.148 2.318 18.43-.368 7.617-2.161 15.016-3.43 22.493-.255 1.5-.121 2.73.64 4.092 4.29 7.676 8.445 15.427 12.714 23.115 2.639 4.752 5.308 9.492 8.808 13.698 1.336 1.606 2.859 3.018 4.41 4.401.521.465 1.151.808 1.846 1.285.197-.273.364-.449.47-.657 2.695-5.312 6.743-9.469 11.214-13.294 12.853-10.996 27.104-19.757 42.484-26.732 1.695-.769 1.778-.793 1.375-2.45-.963-3.968-1.421-8.02-2.084-12.037-.199-1.206-.549-1.926-1.931-1.852-.722.039-1.565-.204-1.575-1.111-.009-.806.731-1.214 1.422-1.451 1.377-.473 2.827-.533 4.26-.487 1.214.039 1.796.877 2.047 2.005.401 1.804.519 3.633.615 5.473.138 2.631.375 5.258.601 7.884.047.545.056 1.126.426 1.609.769.308 1.383-.199 2.021-.444 5.595-2.148 11.193-4.285 16.915-6.076 1.222-.383 2.313-.658 1.638-2.398-.278-.716.387-1.33 1.003-1.758.538-.374 1.167-.482 1.8-.607 1.921-.377 3.911-.426 5.612-1.696.885-.662 2.109-.728 3.236-.695 1.492.044 2.72.668 3.074 2.193.532 2.293 1.96 3.98 3.422 5.685 2.725 3.178 4.832 6.758 6.719 10.472 2.935 5.777 6.069 11.442 9.503 16.936 3.558 5.693 5.88 11.855 7.326 18.394 1.052 4.756 2.172 9.497 3.769 14.119 2.248 6.506 5.619 12.168 11.357 16.218 1.686 1.19 3.083 2.808 5.16 3.405 3.103 3.392 7.498 3.638 11.545 4.697 4.711 1.234 9.5 2.185 13.994 4.163 1.773.78 3.416 1.759 4.917 2.955 2.926 2.332 3.542 5.124 1.951 8.512-.373.795-.748 1.599-1.218 2.338-2.423 3.807-4.087 7.953-5.431 12.23-.381 1.212-1.358 2.117-1.409 3.517-.086 2.377.098 2.817 2.405 3.295 2.124.44 4.295.387 6.45.474 5.924.239 11.836-.114 17.747-.422 6.496-.339 12.964-.235 19.317 1.311 8.174 1.989 16.048 4.883 23.764 8.201 7.563 3.253 15.267 6.131 22.966 9.039 10.907 4.12 21.954 7.884 32.607 12.665 2.111.947 4.31 1.698 6.471 2.536.447.173.906.316 1.351.492.899.357 1.934.702 2.055 1.793.132 1.187-.879 1.773-1.695 2.428-3.169 2.549-5.909 5.518-8.425 8.702-.407.516-.37.954-.03 1.512 3.335 5.471 6.691 10.915 11.835 14.962 1.336 1.051 2.371 2.376 2.933 4.016.507 1.48.092 2.269-1.427 2.632-1.48.354-2.849.016-4.141-.744-3.471-2.043-6.682-4.416-9.181-7.608-1.034-1.32-2.265-2.209-3.952-2.663-.269.97.377 1.666.715 2.422 1.143 2.559 2.211 5.143 2.742 7.909.165.858.196 1.742.284 2.614.11 1.091.027 2.106-1.148 2.629-1.189.53-2.357.517-3.374-.355-1.087-.932-2.111-1.938-3.135-2.886-.437-.173-.606.175-.837.359-2.721 2.166-5.523 1.939-7.801-.644-.158-.179-.268-.401-.429-.577-.287-.314-.402-1.028-1.013-.71-.79.411-.509 1.057-.135 1.631.349.536.718 1.058 1.087 1.58.335.474.504.986.462 1.574-.078 1.1-.61 1.363-1.558.778-1.053-.649-1.602-1.762-2.397-2.606-.404-.071-.61.187-.817.402-7.296 7.582-15.504 14.034-24.124 20.053-10.227 7.141-20.381 14.365-30.908 21.078-7.201 4.592-13.958 9.882-20.912 14.861-.195.14-.383.289-.569.441-3.897 3.176-4.554 5.31-2.964 10.072.349 1.046.282 1.886-.058 2.96-2.971 9.397-7.676 18.091-10.953 27.363-3.101 8.773-5.584 17.693-6.397 26.977-.361 4.128-.11 8.311-.118 12.469-.002 1.182.721 2.09 1.257 3.066.701 1.278 1.233 2.593.939 4.114-.383 1.982-1.751 3.377-3.634 3.636-1.707.235-2.815-.532-3.77-2.618-.796-1.739-1.982-2.992-3.857-3.672-4.015-1.456-7.599-3.713-11.014-6.252-12.202-9.074-22.149-20.239-30.683-32.764-10.336-15.171-19.082-31.234-27.13-47.697-5.09-10.413-10.099-20.866-15.146-31.301-.205-.425-.433-.838-.72-1.39-.513.427-.338.912-.292 1.299 1.36 11.346 2.815 22.68 4.517 33.981 1.392 9.246 2.676 18.51 4.234 27.728 1.224 7.244 2.269 14.532 4.131 21.654 1.155 4.419 2.792 8.647 5.158 12.594 4.189 6.992 8.453 13.941 12.303 21.131 4.415 8.243 8.776 16.516 13.305 24.695 3.523 6.363 6.344 13.088 10.116 19.317 1.158 1.914 2.287 3.845 3.454 5.753.504.825 1.178 1.517 1.94 2.111 11.236 8.765 21.719 18.397 32.258 27.967 4.854 4.408 9.906 8.6 14.715 13.056 5.286 4.898 10.165 10.195 14.311 16.116 1.148 1.64 1.96 3.475 2.585 5.387.357 1.092.615 2.328.215 3.3-.82 1.995.067 3.082 1.501 4.188 2.88 2.221 5.153 5.015 7.172 8.011 1.907 2.828 3.109 5.955 3.33 9.366.126 1.939-.72 3.579-2.345 4.731-1.855 1.315-3.939 2.075-6.157 2.536-7.999 1.663-16.12 2.408-24.225 3.278-8.188.879-16.371 1.804-24.564 2.627-7.796.783-15.601 1.491-23.407 2.175-9.239.81-18.505 1.315-27.714 2.467-.131.017-.252.121-.391.191.231.646.849.64 1.348.824 11.866 4.394 22.391 10.921 31.337 19.89 4.941 4.954 9.205 10.455 12.122 16.856 1.392 3.055 2.217 6.331 2.423 9.723.035.568.018 1.118-.21 1.647-.464 1.073-1.777 1.912-2.868 1.826-1.317-.104-1.647-1.077-1.884-2.139-.57-2.565-.947-5.153-1.88-7.659-1.905-5.12-4.918-9.555-8.44-13.577-6.034-6.892-12.952-12.841-20.919-17.437-5.686-3.281-11.632-6.029-17.986-7.809-.767-.215-1.533-.474-2.25-.817-1.255-.6-1.35-1.479-.28-2.391.746-.636 1.652-.933 2.612-1.122 4.239-.835 8.51-1.467 12.811-1.835 11.154-.956 22.315-1.82 33.47-2.77 14.102-1.202 28.144-2.972 42.21-4.509 5.241-.573 10.483-1.161 15.658-2.231 1.258-.26 2.481-.61 3.692-1.013 2.201-.733 2.527-1.218 2.331-3.483-.291-3.372-1.74-6.314-3.629-9.014-2.871-4.103-6.575-7.405-10.615-10.322-2.167-1.565-4.687-2.39-7.229-3.113-5.166-1.469-10.5-2.022-15.772-2.931-9.759-1.682-19.561-3.239-28.932-6.637-4.892-1.774-9.576-4.02-14.226-6.337-7.224-3.601-14.403-7.294-21.669-10.808-4.179-2.021-8.548-3.598-13.185-4.26-3.592-.513-7.181-.378-10.753.205-2.1.343-3.462 1.56-3.985 3.644-.174.695-.277 1.408-.414 2.113-.633 3.253-3.75 4.537-6.551 2.682-.876-.58-1.56-1.336-2.082-2.274-2.707-4.862-6.389-8.976-10.216-12.947-5.945-6.167-12.487-11.691-19.123-17.084-4.533-3.684-9.53-6.731-14.533-9.743-2.945-1.773-5.97-3.421-8.535-5.756-3.034-2.761-5.187-6.062-6.158-10.077-.406-1.677-1.373-3.051-2.308-4.438-2.279-3.38-4.554-6.765-6.915-10.088-2.831-3.985-5.247-8.211-7.542-12.516-.419-.787-.664-1.594-.819-2.477-1.293-7.353-1.58-14.772-1.563-22.216.041-17.034.106-34.069-.483-51.095-.224-6.468-.827-12.922-1.241-19.384-.348-5.425-.793-10.848-.978-16.279-.316-9.274-.922-18.52-1.903-27.749-1.014-9.542-2.248-19.05-3.867-28.508-2.539-14.839-6.153-29.391-11.533-43.477-.399-1.044-.743-2.112-1.068-3.182-.161-.532-.309-1.253.294-1.489.732-.287.868.522 1.067.989 1.596 3.752 3.101 7.541 4.413 11.403 5.268 15.506 8.395 31.491 10.595 47.679 1.012 7.445 2.03 14.891 2.894 22.355.975 8.421 1.338 16.892 1.878 25.35.535 8.375 1.303 16.736 1.855 25.11.915 13.886 1.323 27.794 1.606 41.706.138 6.796.193 13.596.479 20.387.225 5.345.683 10.684 1.499 15.982.137.887.48 1.665.897 2.453 3.704 7.014 8.14 13.557 12.657 20.06 3.008 4.331 5.808 8.808 8.353 13.434.646 1.175 1.454 2.391.077 3.673-.531.494-.013.867.375 1.111 1.488.935 2.946 1.937 4.508 2.73 6.845 3.474 13.667 6.973 20.002 11.352 1.981 1.37 3.793 2.936 5.653 4.445 6.023 4.886 12.085 9.742 17.224 15.595 2.728 3.107 5.452 6.231 7.572 9.783zm15.558-427.959c-1.027.706-1.28 1.675-1.75 2.494-.714 1.247-1.735 2.334-3.165 2.275-2.242-.092-4.18.816-6.232 1.363-6.185 1.648-12.137 3.995-18.187 6.049-1.008.342-1.346.821-1.181 1.923 1.057 7.05 1.462 14.15 1.493 21.277.023 5.195.262 10.392-.53 15.562-1.597 10.427-3.559 20.8-4.687 31.297-.828 7.7-.555 15.319 1.679 22.807 2.286 7.662 4.879 15.219 7.592 22.737 3.011 8.344 6.213 16.622 8.663 25.158 2.471 8.609 4.069 17.43 6.314 26.095.661 2.551 1.202 5.128 2.101 7.62 2.155 5.975 5.385 11.407 8.445 16.924 1.907 3.439 4.353 6.51 6.92 9.476 3.455 3.993 6.822 8.055 9.863 12.375 2.165 3.075 4.544 5.981 6.914 8.894 1.104 1.357 1.128 1.324 2.874.558.51-.224 1.04-.429 1.582-.55 2.62-.583 4.395.777 4.511 3.443.031.718.067 1.445-.002 2.158-.098 1.016.343 1.593 1.197 2.109 4.79 2.892 9.548 5.826 14.621 8.226 3.028 1.432 6.111 2.793 8.858 4.765.855.614 1.682 1.241 2.072 2.261.344.901.217 1.761-.492 2.43-.773.73-1.501.217-2.15-.252-.777-.561-1.481-1.222-2.254-1.789-1.627-1.194-3.338-2.233-5.565-3.053.542 1.084 1.182 1.466 1.742 1.893 1.143.871 2.353 1.653 3.527 2.483 1.239.876 2.497 1.729 3.691 2.663.682.533 1.023 1.256.394 2.085-.702.925-2.23 1.272-3.227.656-.744-.46-1.378-1.094-2.105-1.585-1.036-.701-2.016-1.532-3.653-2.101 1.064 1.641 1.881 2.821 2.612 4.053.741 1.251.537 1.997-.653 2.841-.6.425-1.278.781-2.003.708-3.323-.337-6.744-.404-9.478-2.749-1.639-1.406-3.18-2.909-4.516-4.625-3.167-4.071-5.624-8.532-7.453-13.343-.374-.984-.799-1.508-2.052-1.438-2.955.165-3.847-.93-3.501-3.903.037-.317.099-.634.187-.94.293-1.018-.012-1.777-.72-2.592-3.199-3.686-6.122-7.592-8.851-11.637-2.464-3.652-5.176-7.105-8.089-10.406-6.496-7.361-11.212-15.779-14.154-25.097-2.115-6.699-3.924-13.515-5.458-20.371-2.604-11.641-5.804-23.083-9.981-34.261-3.581-9.582-6.889-19.26-9.878-29.049-2.247-7.357-3.257-14.823-2.582-22.487.751-8.524 2.064-16.977 3.566-25.395 1.423-7.972 2.403-15.964 1.945-24.079-.094-1.675-.255-3.346-.338-5.021-.26-5.286-1.211-10.473-2.224-15.651-.074-.378-.14-.787-.53-1.017-.834.006-1.528.447-2.255.758-5.735 2.457-11.274 5.314-16.752 8.292-1.053.572-2.069 1.211-3.109 1.808-.605.347-.904.656-.611 1.506.733 2.124.892 4.371 1.031 6.606.833 13.44.383 26.863-.711 40.263-1.113 13.626-2.393 27.238-3.627 40.854-1.169 12.897-2.407 25.789-3.552 38.688-1.048 11.804-1.362 23.632-.478 35.458.624 8.355 2.635 16.418 6.206 24.01 2.725 5.793 5.281 11.624 7.06 17.793.681 2.361 1.461 4.747 2.984 6.765 1.794 2.378 2.257 5.065 1.836 7.945-.277 1.897-.616 3.785-.922 5.677-.547 3.384-.41 6.614 1.272 9.777 1.609 3.027 2.862 6.245 4.249 9.388 4.388 9.943 8.629 19.955 13.835 29.513 3.632 6.668 7.177 13.379 10.499 20.209 2.797 5.751 5.767 11.415 9.321 16.751 6.057 9.095 13.3 17.193 21.026 24.869 6.071 6.031 12.26 11.943 18.924 17.33.94.759 1.899 1.495 2.849 2.241-1.303-3.455-2.862-6.587-4.488-9.683-2.601-4.955-5.537-9.721-8.283-14.593-6.517-11.559-13.223-23.004-20.286-34.236-3.752-5.966-6.303-12.372-7.752-19.231-2.132-10.095-3.358-20.339-4.843-30.537-1.324-9.093-2.333-18.231-3.556-27.339-1.648-12.276-3.246-24.558-4.678-36.861-.979-8.413-2.037-16.818-3.077-25.223-1.482-11.972-3.369-23.89-5.782-35.717-.192-.94-.381-1.886-.197-2.852.093-.488.299-.933.779-1.137.621-.264 1.079.118 1.484.505.788.753 1.048 1.793 1.334 2.779 1.469 5.064 2.874 10.145 4.034 15.292 3.411 15.147 5.363 30.524 7.205 45.915.432 3.605.953 7.109 3.267 10.089.532.685.879 1.52 1.277 2.304 7.276 14.323 14.143 28.852 21.739 43.015 6.994 13.041 14.277 25.894 23.017 37.883 7.583 10.401 16.059 19.895 26.415 27.637 3.858 2.884 7.805 5.574 12.29 7.384.98.396 1.957.962 3.181.778 0-.616.018-1.091-.003-1.565-.373-8.676.334-17.248 2.407-25.696 2.234-9.108 5.302-17.937 9.285-26.413 1.94-4.128 3.225-8.266 3.16-12.864-.044-3.109.298-6.224.474-9.336.05-.886-.234-1.388-1.236-1.208-.966.174-1.913-.013-2.85-.233-.731-.172-1.397-.487-1.613-1.266-.248-.894.28-1.525.897-2.076.605-.541 1.353-.813 2.083-1.147 6.251-2.86 12.423-5.881 18.095-9.8 4.144-2.863 8.172-5.894 12.334-8.729 2.505-1.706 5.162-3.19 7.767-4.746.472-.282 1.068-.556 1.555-.068.604.605-.094.962-.364 1.4-.228.37-.757.652-.393 1.255.749-.056 1.249-.606 1.828-.975 9.849-6.28 19.129-13.381 28.785-19.937 11.266-7.65 19.887-17.983 28.695-28.124 1.479-1.704 1.908-3.661.609-5.92-1.423-2.474-3.338-4.234-5.852-5.455-3.548-1.723-7.341-2.711-11.133-3.671-12.115-3.065-24.481-4.689-36.849-6.272-9.207-1.179-18.337-2.76-27.339-5.029-3.421-.863-6.698-2.136-9.837-3.749-.717-.368-1.503-.693-2.261-1.863 3.459 1.678 6.497 3.037 9.766 3.81 5.056 1.196 10.145 2.215 15.276 3.019 11.85 1.856 23.808 2.83 35.702 4.329 10.153 1.28 20.264 2.799 30.115 5.69.597.175 1.157.388 1.852.157 4.509-1.499 8.117-4.459 12.238-7.153-8.485-3.649-16.634-7.132-24.766-10.656-10.482-4.543-20.994-9.023-31.142-14.294-5.327-2.767-10.805-5.19-16.458-7.206-6.134-2.188-12.41-3.696-18.967-3.714-5.28-.014-10.557.113-15.828.442-5.281.33-10.562.21-15.814-.352-4.23-.453-5.061-1.698-4.343-5.865.203-1.18.646-2.356.254-3.546-.694-2.108-.211-4.098.43-6.1.834-2.604 2.217-4.953 3.381-7.405 1.421-2.994.886-4.959-1.894-6.763-1.883-1.221-3.938-2.1-6.078-2.805-4.18-1.378-8.514-2.169-12.732-3.397-2.453-.714-4.957-1.313-7.195-2.592-1.316-.752-2.644-1.575-2.705-3.382-.021-.624-.505-.972-.926-1.337-.966-.839-1.922-1.691-2.913-2.5-4.374-3.573-7.469-8.057-9.603-13.259-2.075-5.059-3.259-10.364-4.358-15.683-1.518-7.346-3.989-14.284-7.94-20.704-3.099-5.036-5.993-10.2-8.972-15.31-1.452-2.491-3.07-4.862-4.867-7.122-2.565-3.227-6.054-5.703-7.637-9.747zm212.47 193.217c-.292-1.36-1.278-2.186-2.231-2.974-4.243-3.507-7.57-7.732-10.152-12.575-.321-.603-.541-1.593-1.316-1.513-.783.081-1.084 1.056-1.525 1.7-.252.368-.163.729-.026 1.128.413 1.203.771 2.358 2.089 3.007 1.137.56 2.017 1.5 2.804 2.544 2.767 3.668 6.168 6.619 10.357 8.683zm-263.649 130.726c-1.036-8.944-5.442-18.939-10.336-23.715 3.351 8.249 6.818 16.011 10.336 23.715zm241.933-136.755c2.286 3.298 3.074 7.395 6.482 9.818.31-.793.081-1.388-.072-2-.641-2.562-1.691-4.965-2.749-7.373-1.453-3.308-1.415-3.324-3.661-.444zm-1.851 2.272c-1.287.798-1.86 1.905-2.77 2.65-1.004.821-.776 1.602-.112 2.447.245.311.477.637.754.917 1.585 1.6 2.902 1.635 4.529.171.337-.303.481-.584.26-1.012-.867-1.673-1.725-3.351-2.661-5.173zm-251.368 126.053c.93 5.734 1.971 11.442 3.865 16.958 1.351-6.25-1.689-11.506-3.865-16.958z" fill="rgba(0,0,84,1)" id="VkgTMuceG7mAS7fYLolx-" data-selector="path[2]" /><path d="m67.721 10.2c-.988-1.006-1.976-2.012-2.965-3.018-1.067-1.087-2.107-2.202-2.784-3.585-.993-2.029-.129-3.466 2.143-3.591.805-.044 1.576.141 2.355.363 3.276.932 6.2 2.541 8.936 4.528 5.633 4.089 11.333 8.104 15.742 13.605 2.1 2.62 4.15 5.281 6.249 7.902 2.013 2.514 4.256 4.724 7.22 6.186 2.669 1.317 5.423 1.124 8.213.96.789-.046 1.247-.667 1.753-1.168 2.166-2.142 3.971-4.599 5.977-6.88 1.847-2.101 3.672-4.214 5.849-6.009 3.575-2.948 7.503-2.785 11.549-1.41 1.806.614 2.11 1.714 1.224 3.387-.422.798-1.043 1.443-1.737 1.965-5.439 4.089-9.155 9.539-12.301 15.446-1.615 3.031-3.549 5.887-4.897 9.068-.975 2.302-1.251 4.618-.501 7.016 1.768 5.659.13 10.185-4.484 13.78-2.211 1.723-4.46 3.387-6.887 4.787-.862.497-1.071 1.004-1.068 2.063.02 9.374 2.531 18.341 4.301 27.43.687 3.53 1.418 7.051 2.052 10.591.452 2.522.969 5.021 1.751 7.463.17.529.282 1.079.384 1.626.047.251-.104.46-.353.54-.251.08-.474-.014-.592-.248-.106-.212-.185-.443-.244-.673-1.261-4.972-3.547-9.594-4.946-14.521-2.228-7.846-4.409-15.701-5.329-23.834-.233-2.061-.236-4.148-.354-6.223-.053-.933.082-1.875-1.086-2.409-.899-.41-.571-1.168-.064-1.792.521-.641 1.269-.96 1.945-1.381 3.061-1.907 6.014-3.943 8.458-6.645 1.231-1.361 2.008-2.849 1.969-4.733-.02-.956.215-1.923.146-2.871-.354-4.833 1.139-9.166 3.597-13.203 2.869-4.711 5.824-9.37 8.793-14.019 1.919-3.005 4.677-5.233 7.278-7.6.812-.738 2.225-1.428 1.901-2.549-.36-1.245-1.997-1.031-3.119-1.269-2.644-.56-4.863.289-6.727 2.216-1.893 1.957-3.7 3.991-5.34 6.16-2.175 2.877-4.571 5.552-7.118 8.098-1.204 1.203-2.699 1.889-4.345 1.52-1.797-.403-3.627-.578-5.415-.987-4.059-.93-7.251-3.232-9.948-6.323-1.949-2.233-3.712-4.611-5.42-7.024-5.269-7.446-12.32-12.937-19.716-18.044-1.417-.978-2.975-1.786-4.964-2.158.377 1.104.995 1.711 1.59 2.316 4.595 4.676 9.014 9.521 14.066 13.741 3.067 2.562 5.804 5.499 8.462 8.49.74.833 1.287 1.835 2.017 2.678 1.517 1.752.84 4.089 1.675 6.023.144.333-.133.829-.588.905-.498.084-.65-.38-.775-.738-.77-2.202-1.947-4.204-3.056-6.238-.556-1.019-1.15-2.024-2.189-2.737 1.826 4.553 2.595 9.335 3.318 14.515 1.889-1.856 3.338-3.614 4.715-5.434.53-.701.998-1.454 1.791-1.907 1.656-.947 2.936-.535 3.607 1.263.723 1.934.59 3.939.207 5.918-.711 3.669-2.258 6.976-4.438 10.003-1.355 1.881-2.629 3.816-3.841 5.797-.723 1.182-.761 2.094.136 3.228 1.49 1.882 2.713 3.951 3.583 6.211.294.765.499 1.531.24 2.335-.522 1.624-1.995 1.936-3.124.655-.26-.295-.481-.649-.633-1.012-1.058-2.522-2.451-4.856-4.067-7.047-.947-1.283-.849-2.442-.122-3.772 1.384-2.534 2.979-4.927 4.68-7.249 2.02-2.756 3.229-5.869 4.151-9.114.232-.817.425-1.659.14-2.642-.796.59-.965 1.402-1.256 2.104-2.701 6.513-6.865 11.699-13.392 14.705-.989.455-1.219 1.054-1.176 2.042.123 2.81.497 5.589 1.357 8.254.791 2.45 1.392 4.91 1.584 7.476.103 1.379.513 2.653 1.394 3.765.793 1.002 1.523 2.053 2.285 3.08 1.382 1.862 1.589 3.866.394 5.836-1.221 2.014-1.717 4.298-2.657 6.412-.497 1.117-.57 2.351-.003 3.499 2.824 5.713 3.134 11.834 2.962 18.033-.295 10.643.321 21.263.739 31.89.223 5.67.116 11.353.148 17.03.002.376.047.806-.395 1.03-.664-.782-.639-.784-.915-5.016-.114-1.753-.354-3.498-.544-5.245-.197-1.81-.402-3.62-.626-5.62-2.499 1.143-4.129.156-5.465-1.745-1.025-1.458-2.524-2.175-4.249-2.435-5.136-.773-10.299-1.382-15.321-2.792-.914-.257-1.896-.338-2.851-.375-14.463-.551-28.887-2.081-43.385-1.75-1.758.04-3.506.051-5.254.362-2.18.388-3.566 1.625-4.466 3.577-1.336 2.899-1.653 6.013-1.818 9.118-.456 8.569.384 17.09 1.167 25.609.534 5.811.924 11.639 1.637 17.428 1.66 13.491 3.643 26.941 7.647 39.977 2.602 8.469 6.751 16.051 13.788 21.761 3.066 2.487 6.466 4.407 10.058 6.008 2.262 1.009 4.531 2.004 6.803 2.991 1.251.544 2.427 1.211 3.555 1.978 2.937 1.999 4.177 4.733 3.66 8.255-.174 1.187-.293 2.384-.528 3.559-1.759 8.776-1.439 17.445.921 26.101 2.417 8.864 4.63 17.784 6.867 26.696 1.943 7.739 4.992 14.992 9.156 21.798 3.34 5.459 6.687 10.91 10.669 15.934 3.444 4.346 7.326 8.248 11.899 11.422.912.633 1.789 1.333 3.009 1.778.08-.764-.392-1.21-.699-1.695-5.897-9.324-11.953-18.552-17.524-28.076-7.833-13.393-12.714-27.879-15.548-43.086-1.406-7.545-2.605-15.131-3.205-22.78-.537-6.844-1.244-13.714-.166-20.582.136-.867.313-1.729.49-2.589.18-.88.565-1.668 1.187-2.319 1.427-1.491 3.106-1.466 4.248.248 1.015 1.523 1.873 3.169 2.638 4.835 3.37 7.345 6.062 14.958 8.765 22.564 4.923 13.855 9.506 27.839 15.275 41.379 3.294 7.73 7.167 15.166 11.53 22.36 4.478 7.383 8.76 14.889 13.716 21.968 3.576 5.109 7.527 9.926 12.244 14.611 1.189-3.107 2.381-5.963 3.38-8.884 2.906-8.495 4.493-17.316 6.282-26.083.222-1.087.471-2.018 1.625-2.42 1.392-.484 2.203.157 1.891 1.608-1.51 7.03-2.878 14.092-4.745 21.043-1.415 5.269-3.429 10.313-5.714 15.247-.526 1.135-.841 1.994.143 2.968.264.261.451.728.157 1.085-.271.328-.721.301-1.122.23-1.149-.203-2.039-.888-2.901-1.606-4.082-3.399-7.655-7.33-10.753-11.584-10.137-13.922-19.108-28.591-26.545-44.127-5.77-12.053-9.934-24.766-14.397-37.345-3.447-9.715-6.74-19.487-10.649-29.033-.807-1.97-1.549-3.978-3.242-5.744-.173 1.45-.404 2.897-.508 4.352-.352 4.883.064 9.746.405 14.613.87 12.407 3.284 24.542 6.438 36.541 3.402 12.94 8.943 24.951 16.013 36.28 5.164 8.275 10.329 16.549 15.483 24.829.548.881 1.04 1.799 1.532 2.714.478.89.735 1.851-.018 2.681-.736.811-1.736 1.175-2.832.886-1.631-.43-3.146-1.156-4.608-1.993-2.282-1.306-4.454-2.783-6.726-4.433-.876 2.06-.951 4.133-1.219 6.124-1.223 9.108-2.33 18.231-3.471 27.35-1.726 13.802-2.841 27.666-4.222 41.503-.968 9.702-1.671 19.43-2.633 29.132-1.113 11.214-1.917 22.455-3.103 33.664-.723 6.834-1.06 13.708-1.568 20.564-.815 11.006-1.17 22.033-1.534 33.06-.461 13.997-.503 27.992.235 41.975.362 6.861 1.033 13.707 1.648 20.552 1.704 18.949 4.291 37.788 7.421 56.547 1.893 11.345 4.199 22.619 6.527 33.886 1.132 5.478 2.231 10.956 3.892 16.307.418 1.348.967 2.581 2.19 3.319 3.822 2.307 5.05 5.989 5.494 10.111.344 3.189.137 6.39.217 9.584.16 6.348 1.473 12.534 2.962 18.669 3.233 13.324 8.472 25.96 13.462 38.681 3.853 9.822 7.717 19.636 12.143 29.221 3.889 8.421 8.266 16.596 12.405 24.892 1.712 3.432 3.198 6.985 5.047 10.339 2.068 3.752 3.357 7.712 3.902 12.166 2.578-.813 4.941-1.507 7.268-2.301 11.429-3.902 22.979-7.355 34.929-9.275 4.105-.66 8.25-1.047 12.426-.842 1.045.051 2.059.217 3.064.514 4.12 1.222 4.878 4.314 3.991 7.697-.734 2.799-2.544 4.951-4.692 6.817-2.305 2.003-4.871 3.642-7.537 5.099-7.934 4.335-14.967 9.811-21.078 16.464-2.616 2.848-4.938 5.867-5.591 9.86-.619 3.783 1.295 5.494 4.997 4.259 2.436-.812 4.604-2.201 6.828-3.468 11.352-6.466 21.807-14.26 32.425-21.814 9.923-7.059 20.167-13.559 31.483-18.21.361-.149.685-.389 1.014-.58-.186-.547-.584-.836-.948-1.14-12.066-10.075-22.791-21.473-33.252-33.171-15.978-17.867-30.61-36.719-43.198-57.135-8.939-14.498-15.669-30.024-21.44-45.992-9.387-25.971-16.662-52.555-22.719-79.474-2.877-12.789-4.981-25.727-6.501-38.757-1.611-13.811-3.297-27.614-4.94-41.421-.161-1.349-.261-2.706-.369-4.061-.032-.395-.036-.803.024-1.193.116-.76.706-1.067 1.367-1.1.664-.032.966.465 1.045 1.082.133 1.03.292 2.058.38 3.092 1.231 14.47 4.549 28.536 7.995 42.599 3.97 16.207 9.833 31.733 16.158 47.12 7.841 19.077 16.083 37.976 25.082 56.535 5.865 12.097 12.93 23.538 19.73 35.119 2.671 4.55 5.316 9.116 7.985 13.667.637 1.086 1.156 2.224 2.556 2.687.824.272 1.225 1.231 1.694 1.968 5.243 8.224 10.519 16.429 15.491 24.822 5.866 9.904 11.342 20.041 17.805 29.586 3.679 5.434 7.559 10.718 11.865 15.676 2.666 3.07 5.585 5.885 9.037 8.264-.799-2.315-1.579-4.636-2.401-6.942-1.233-3.463-2.51-6.907-3.186-10.542-1.165-6.265-.575-12.361 1.23-18.464 2.054-6.939 5.061-13.45 8.184-19.933 2.844-5.903 5.389-11.948 8.4-17.774 1.436-2.778 3.074-5.423 4.835-7.999.675-.987 1.428-1.915 1.911-3.035.567-1.314 1.712-1.839 3.076-1.929.568-.038 1.161.014 1.473.585.376.686.048 1.266-.478 1.681-1.212.956-2.075 2.2-3.009 3.399-3.919 5.026-6.679 10.707-9.276 16.469-2.333 5.177-4.844 10.265-7.423 15.32-3.107 6.09-5.529 12.447-6.784 19.147-1.168 6.233-.496 12.414 1.845 18.377 1.612 4.105 3.652 7.989 5.764 11.847.534.975.984 2.015 1.326 3.073.589 1.824.02 2.993-1.763 3.547-2.735.849-5.037 2.692-7.869 3.331-.568.128-1.096.658-1.531 1.111-1.096 1.142-1.085 1.636.101 2.766 2.026 1.93 4.132 3.78 6.443 5.359.908.621 1.413 1.333 1.218 2.367-.207 1.1-1.144 1.612-2.127 1.627-6.921.105-12.103 4.508-17.98 7.187-.872.397-1.049 1.114-.921 1.991.173 1.186.268 2.384.475 3.564 2.483 14.167 4.979 28.332 7.477 42.497 1.249 5.491 2.985 5.545 4.024 5.431 5.483-.601 10.5-2.508 15.224-5.333 1.413-.845 1.952-1.79 2.139-3.459 1.578-14.139 3.766-28.192 6.175-42.212.296-1.726.487-3.498.459-5.245-.084-5.27-.048-10.555-.981-15.774-.71-3.972-.26-7.967-.195-11.949.135-8.338 1.531-16.533 2.829-24.748 1.034-6.548 1.722-13.151 2.516-19.736 1.157-9.598 2.059-19.227 3.531-28.786.215-1.397.33-2.875 1.969-3.567 2.102-.888 3.341-.175 3.229 2.075-.115 2.312-.367 4.617-.599 6.922-.767 7.634-1.562 15.265-2.328 22.899-.973 9.705-2.413 19.344-3.955 28.971-1 6.246-1.356 12.544-1.504 18.869-.107 4.562.262 9.101.272 13.655.016 7.384-.809 14.635-2.447 21.855-3.009 13.265-5.044 26.695-5.859 40.287-.088 1.464-.924 2.128-2.081 2.605-.971.4-1.027 1.03-.305 1.601 1.042.824 1.262 1.987 1.609 3.125 1.108 3.643 1.04 7.422 1.308 11.163.575 8.052 1.243 16.099 1.71 24.157.324 5.583.659 11.192.445 16.768-.134 3.48-6.989 11.444-12.924 12.902-2.143.526-5.105-.726-5.754-.933-2.673-.852-3.19-2.916-3.537-5.364-1.796-12.658-3.276-25.354-4.88-38.036-1.434-11.336-3.253-22.618-5.018-33.906-1.555-9.947-3.25-19.875-4.457-29.873-.354-2.932-.431-5.897-.646-8.846-.033-.453.159-.951-.398-1.527-1.227.737-2.547 1.441-3.773 2.281-8.244 5.651-16.463 11.338-24.7 16.999-6.46 4.44-13.06 8.659-19.872 12.542-2.154 1.228-4.327 2.409-6.708 3.169-1.479.472-2.963.607-4.494.372-3.255-.499-5.085-2.728-4.8-6.04.237-2.76 1.244-5.252 2.843-7.534 3.575-5.101 8.191-9.167 12.898-13.151 4.354-3.685 9.199-6.64 14.115-9.487 1.943-1.126 3.806-2.362 5.483-3.859 1.582-1.413 2.802-3.076 3.301-5.174.617-2.594-.414-4.288-3.042-4.666-2.943-.425-5.909-.147-8.853.157-7.585.784-14.912 2.789-22.237 4.784-6.4 1.743-12.67 3.898-18.952 6.013-1.968.663-3.946 1.331-6.026 1.544-2.539.259-3.337-.361-3.694-2.872-.863-6.075-2.915-11.725-5.683-17.192-7.111-14.046-14.447-27.992-20.313-42.629-5.142-12.831-10.373-25.631-15.012-38.656-3.384-9.501-5.999-19.22-7.622-29.183-.631-3.872-.681-7.798-.673-11.717.005-2.492-.234-4.953-.922-7.348-.493-1.716-1.255-3.286-2.914-4.229-2.557-1.454-3.663-3.841-4.375-6.567-1.777-6.806-3.195-13.683-4.543-20.586-2.755-14.115-5.478-28.238-7.522-42.473-1.579-10.992-3.031-22.006-4.128-33.06s-2.096-22.11-2.629-33.217c-.668-13.92-.246-27.817.006-41.727.184-10.161.955-20.285 1.674-30.409.65-9.163 1.736-18.296 2.638-27.442.855-8.669 1.733-17.335 2.58-26.005 1.244-12.725 2.456-25.453 3.706-38.178.82-8.351 1.643-16.703 2.535-25.047 1.181-11.047 2.727-22.045 4.517-33.01.567-3.47 1.079-6.95 2.045-10.34.244-.855.055-1.467-.613-2.121-9.918-9.718-16.85-21.456-22.634-33.92-2.053-4.424-3.22-9.194-4.411-13.926-2.184-8.678-4.27-17.382-6.614-26.016-2.066-7.61-2.459-15.273-1.529-23.054.218-1.826.375-3.661.653-5.477.487-3.169-.825-5.412-3.446-7.04-2.253-1.399-4.753-2.28-7.154-3.359-3.949-1.775-7.753-3.759-11.246-6.355-6.631-4.928-11.1-11.42-14.033-19.041-3.438-8.933-5.115-18.295-6.626-27.693-1.689-10.501-2.874-21.063-3.713-31.662-.712-9-1.87-17.981-1.428-27.041.163-3.351.28-6.706 1.299-9.956 1.502-4.789 4.715-7.437 9.692-8.025 6.228-.736 12.466-.286 18.698-.167 7.357.141 14.706.519 22.04 1.157 1.193.104 2.352.163 3.46-.557 1.01-.655 2.191-.285 3.287-.145 2.634.337 5.247.257 7.892.024 4.672-.412 8.72-2.501 12.83-4.449 1.901-.901 3.363-2.415 4.942-3.765.798-.682.793-1.569.781-2.406-.079-5.517-.191-11.034-.352-16.549-.127-4.356-.999-8.56-2.804-12.553-.662-1.464-.563-3.019-.095-4.468.591-1.83.904-3.735 1.545-5.533.611-1.713.425-3.283-.249-4.868-.532-1.25-1.066-2.502-1.669-3.718-2.62-5.291-3.957-10.956-4.805-16.745-.265-1.808-.163-3.668-.259-5.503-.065-1.255.611-2.169 1.46-2.894 1.684-1.437 1.939-3.187 1.93-5.323-.038-8.936-3.426-16.646-8.295-23.865-2.783-4.126-6.158-7.763-9.5-11.427-.458-.502-1.27-.959-.881-1.791.368-.787 1.212-.97 2.03-1.066 1.49-.175 2.958.065 4.648.048zm180.891 868.503c-.297-1.112-1.046-1.352-1.585-1.786-2.681-2.159-5.217-4.471-7.563-6.995-8.001-8.608-14.162-18.502-20.211-28.504-4.941-8.169-8.755-16.951-14.461-24.731-4.948-6.746-9.036-14.134-13.338-21.338-4.877-8.165-9.571-16.438-14.505-24.572-6.301-10.389-12.409-20.898-17.627-31.882-8.504-17.903-16.506-36.032-23.966-54.397-5.174-12.737-10.249-25.506-13.789-38.823-.548-2.06-.976-4.161-1.917-6.115.193 2.062.519 4.1.809 6.143 2.065 14.571 5.054 28.961 8.67 43.215 5.365 21.149 11.266 42.142 18.673 62.689 6.523 18.096 14.249 35.587 24.834 51.748 6.842 10.445 14.138 20.544 21.883 30.325 6.157 7.775 12.706 15.218 19.261 22.659 7.669 8.707 15.637 17.115 24.081 25.072.572.539 1.056 1.21 1.984 1.487 2.32-2.438 5.472-3.36 8.766-4.194zm-171.876-857.571c-.508.445-.404.864-.344 1.226.899 5.44 1.859 10.862 5.159 15.504.185.26.352.532.526.799.509.782.699 1.526-.475 1.82-.829.208-.921.65-.79 1.4.333 1.898.143 3.818.15 5.73.003.732-.286 1.54.37 2.406 1.222-1.124 2.299-2.167 3.435-3.143 1.005-.864 1.324-1.913 1.174-3.195-.425-3.642-.827-7.283-1.824-10.83-.913-3.248-2.106-6.358-4.25-9.02-.89-1.105-1.883-2.095-3.131-2.697zm-11.452-7.806c3.241 3.293 5.785 7.133 8.873 10.564-.203-1.889.451-3.956-.501-5.445-.993-1.554-2.928-2.378-4.545-3.383-1.172-.728-2.262-1.659-3.827-1.736z" fill="rgba(0,0,84,1)" id="G2lFpfkV_oGvBiKefHZKh" data-selector="path[3]" /><path d="m174.096 1027.518c4.209 0 7.961.008 11.713-.002 3.459-.009 6.868.276 10.142 1.515 1.432.542 2.773 1.237 3.976 2.185 2.382 1.876 2.503 3.226.325 5.277-1.512 1.423-3.153 2.709-4.735 4.058-2.068 1.763-3.109 3.999-3.169 6.721-.045 2.054.306 2.499 2.391 2.741 2.577.3 5.121-.102 7.634-.533 13.071-2.238 26.224-2.776 39.444-2.055.729.04 8.285 1.185 10.67 1.744 3.968.93 7.795 2.281 11.79 3.708.144-.739-.304-1.109-.61-1.501-2.562-3.284-5.392-6.329-8.326-9.278-6.432-6.465-13.082-12.7-19.905-18.751-3.831-3.398-7.512-6.953-11.037-10.668-.55-.579-2.762-2.115-3.101-2.566-.557-.743-1.007-1.489-.138-2.32.913-.874 2.35-1.037 2.977-.114 6.392 9.411 15.764 15.81 23.799 23.551 5.699 5.49 11.799 10.56 17.327 16.239 2.013 2.068 3.94 4.202 5.335 6.754.344.63.706 1.264.933 1.939.322.961.317 1.927-.658 2.566-.922.605-2.108.99-2.911.215-2.582-2.491-6.268-3.193-8.842-5.678-1.031-.996-2.301-.975-3.305-.274-1.166.813-.968 1.905-.579 3.008.769 2.181 1.705 4.311 2.636 6.41 1.33 3 .681 5.756-.136 8.607-.132.459-.3.913-.504 1.345-.76 1.617-.719 3.24-.12 4.891 1.497 4.131 2.545 8.379 3.358 12.693.218 1.158.056 2.214-.367 3.277-.774 1.945-1.223 3.828-.664 6.031.613 2.417-.165 4.927-.652 7.337-.321 1.585-1.92 2.055-3.296 2.473-3.291.998-6.651 1.7-10.047 2.261-6.954 1.147-13.911 1.986-20.996 1.683-6.814-.292-13.259-2.024-19.53-4.492-3.46-1.361-5.574-5.194-5.158-8.855 1.063-9.367 2.144-18.735 4.268-27.937.968-4.196 2.433-8.286 2.325-12.688-.026-1.073-.051-2.156.055-3.258.176-1.815.561-3.428 2.258-5.085-3.018.42-5.516.743-8.006 1.122-2.467.375-4.942.451-7.417.214-2.961-.284-3.814-1.365-3.846-4.359-.034-3.216 1.033-5.951 3.275-8.232 1.121-1.141 2.294-2.23 3.417-3.368 1.27-1.286 1.251-1.384-.221-2.51-1.495-1.144-3.226-1.736-5.038-2.129-1.882-.409-3.782-.594-5.713-.578-3.279.026-6.56.013-9.838-.055-1.354-.028-2.722-.143-4.052-.39-1.965-.366-2.626-1.579-1.589-3.295 2.377-3.934 5.3-7.408 9.336-9.789 1.121-.662 2.42-.749 3.617-1.062.214-.757-.161-1.323-.417-1.884-5.024-10.986-8.806-22.464-13.355-33.637-4.219-10.362-8.506-20.696-12.692-31.071-3.649-9.043-7.821-17.866-11.297-26.98-.427-1.119-.777-2.267-1.156-3.403-.207-.62-.21-1.258-.128-1.898.079-.616.395-1.044 1.026-1.163.705-.133 1.025.313 1.2.893.859 2.847 2.299 5.444 3.551 8.114 7.196 15.34 14.338 30.703 20.841 46.355 4.078 9.817 7.843 19.756 11.708 29.656 1.948 4.989 4.149 9.87 6.365 14.744.869 1.911.517 2.907-1.427 3.721-1.051.441-2.157.614-3.288.347-2.1-.495-3.76.225-5.119 1.811-1.43 1.669-3.15 3.12-4.303 5.653zm81.62 72.114c-.715-.277-1.058.155-1.433.379-3.723 2.221-7.708 3.824-11.846 5.069-1.451.437-2.917.733-4.456.807-7.087.342-14.022-.288-20.68-2.929-.369-.146-.762-.233-1.144-.349-1.862-.566-8.876-1.584-10.517-.535-.661.423-1.409.917-1.187 1.895.223.985.778 1.774 1.813 2.035 3.633.914 7.241 1.971 10.918 2.658 8.643 1.614 17.307 1.37 25.943-.184 3.137-.565 6.308-.944 9.405-1.736 1.043-.267 1.648-.757 1.837-1.881.3-1.779.668-3.551 1.347-5.229zm-16.054-36.711c2.171.21 4.449-1.08 5.176-2.906.55-1.381.062-2.32-1.431-2.646-.54-.118-1.109-.135-1.666-.144-10.552-.185-20.729 2.195-30.906 4.558-.669.155-1.638.426-1.426 1.298.235.971 1.208.739 2.005.634 7.9-1.041 15.741-2.506 23.67-3.332 2.172-.226 4.346-.551 6.656-.469-.346 1.409-1.873 1.746-2.079 3.008zm6.054 13.737c.019-1.38-.336-2.318-.901-3.223-1.588-2.544-3.993-3.471-6.851-3.697-6.161-.487-11.964 1.634-17.955 2.374-.155.019-.315.073-.452.149-.418.233-.934.481-.897 1.012.053.764.734.638 1.267.719 3.208.488 6.35-.03 9.497-.562 4.59-.776 9.04-.728 13.094 2.065.864.595 1.837 1.22 3.197 1.163z" fill="rgba(0,0,84,1)" id="NypO16fHvHG1ZeP7hE2K6" data-selector="path[4]" /><path d="m278.41 245.693c-.411-1.318-1.363-2.343-1.935-3.572-.268-.577-.542-1.161-.714-1.77-.109-.386.048-.807.42-1.043.46-.292.788.051.995.363 2.863 4.325 6.293 8.311 8.242 13.191 1.809 4.529 1.613 9.235.875 13.945-.198 1.262-.435 2.524-.753 3.761-.452 1.758-.643 3.42.55 5.023.539.725.679 1.693-.007 2.453-.64.71-.461 1.295.047 1.904 2.592 3.108 3.346 6.803 3.546 10.714.096 1.871-.136 2.756-1.916 3.365-1.215.415-1.419 1.048-1.355 2.104.053.877.022 1.759.034 2.638.012.838-.157 1.683-.865 2.135-1.002.64-1.178 1.617-1.481 2.615-.463 1.526-1.009 3.029-1.581 4.518-.318.827-.834 1.553-1.596 2.053-1.592 1.043-2.721.482-2.865-1.435-.053-.706.033-1.429-.431-2.212-1.167.291-1.723 1.318-2.522 2.029-.821.729-.849 1.265-.051 2.14 1.924 2.107 2.733 4.621 2.347 7.52-.162 1.22-.809 2.207-1.306 3.347.464.287.874.516 1.258.783 1.388.967 1.49 1.952.231 3.061-1.473 1.297-3.288 1.57-5.169 1.462-.712-.041-1.414-.249-2.124-.357-.78-.118-1.649-.427-1.711.903-.034.739-.741.741-1.244.883-3.703 1.041-7.113.525-10.139-1.961-.178-.146-.385-.255-.74-.488-.727 2.025-.726 4.085-.931 6.08-.293 2.863-.574 5.725-1.032 8.566-.169 1.049-.35 1.928-1.199 2.894-.943 1.073-1.017 2.953-1.341 4.509-.157.756.653 1 1.145 1.38.641.494 1.819.726 1.144 1.94-.497.895-2.051 1.253-2.964.691-.745-.459-1.389-1.077-2.113-1.573-5.445-3.722-11.168-6.876-17.693-8.268-3.622-.773-7.285-.789-10.925-.296-.308.767.31 1.076.598 1.486.79 1.127 1.442 2.257 1.525 3.705.054.938.365 1.885.694 2.779.634 1.723 1.318 3.416 1.778 5.208.444 1.729.342 3.486.578 5.446 2.338-.632 4.609-1.221 6.865-1.862 5.002-1.42 10.072-2.508 15.21-3.305 1.246-.193 2.55-.26 3.655-1.024.253-.175.58-.284.888-.331.57-.089 1.154-.072 1.421.575.212.513-.048.931-.406 1.279-.658.64-1.478.86-2.371 1.021-6.606 1.194-13.158 2.632-19.64 4.385-2.164.585-4.256 1.337-6.302 2.269-2.191.998-3.108.348-3.196-2.065-.029-.799-.009-1.6-.033-2.399-.084-2.765-.249-2.934-2.893-2.522-2.287.357-4.559.814-6.842 1.199-5.689.96-10.645-.856-15.194-4.102-.558-.398-.954-1.023-1.464-1.586-.532.32-1.049.702-1.621.962-1.689.768-2.583.266-2.803-1.572-.276-2.3-.521-4.603-.765-6.906-.337-3.184-1.039-6.302-1.674-9.432-.141-.695-.421-1.429.156-2.054.516-.559 1.186-.802 1.951-.729.827.079.994.795 1.125 1.377.565 2.492 1.104 4.992 1.555 7.506.462 2.576.809 5.173 1.257 8.091 5.537-3.519 10.909-6.917 16.843-9.447-.723-1.138-6.884-5.407-8.94-6.931-.434-.321-4.384-3.549-5.752-4.184-.481-.223-1.13-.461-.85-1.205.199-.528.735-.55 1.22-.528.458.021.914.086 1.35.129 0-2.494.017-4.878-.005-7.261-.02-2.156-.006-4.296.214-6.456.224-2.2.28-4.476-1.386-6.361-.7-.792-.751-1.929-.962-2.932-.641-3.05-1.324-6.085-2.173-9.087-.635-2.243-.789-4.563-.693-6.894.083-1.997.157-3.994.254-5.991.023-.473.013-.997.213-1.401.364-.734.929-1.341 1.876-1.198 1.018.154.882.969.876 1.678-.005.639.035 1.29-.076 1.913-1.146 6.429.312 12.574 2.164 18.633.497 1.626 1.509 3.188 2.607 4.512 1.109 1.338 1.244 2.755 1.058 4.261-.65 5.247-.426 10.539-.9 15.789-.167 1.855.264 3.097 1.917 4.177 2.941 1.921 5.692 4.13 8.544 6.19 1.547 1.117 3.119 2.181 4.902 2.941.721.307 1.342.379 2.06.271 9.499-1.425 18.462.042 26.794 4.951 1.235.728 2.521 1.371 3.787 2.045.057.03.156-.017.421-.054.25-1.659.395-3.4.787-5.084 1.408-6.05 2.112-12.203 2.818-18.357.2-1.744.288-3.503.386-5.257.046-.821.156-1.492.915-2.066 2.017-1.523 3.387-4.235 3.647-6.858-.138-.33-.401-.205-.595-.124-5.208 2.184-10.198 1.427-14.955-1.269-5.571-3.158-10.764-6.909-15.865-10.758-1.314-.991-2.434-1.298-3.91-1.042-3.319.575-6.647.886-10.017.437-1.59-.212-3.179-.438-4.671-1.024-2.355-.925-4.638-1.057-6.898.26-.389.227-.941.623-1.284.123-.432-.63.215-1.027.635-1.332 2.933-2.13 6.242-3.497 9.843-3.095 4.231.472 8.45.722 12.682.526 2.419-.112 4.682.848 7.093.695.864-.055 1.622.62 2.343 1.126 3.729 2.616 7.448 5.246 11.181 7.856.993.694 1.85 1.523 2.64 2.429 1.226 1.406 2.715 2.477 4.357 3.332 2.551 1.329 5.096 1.001 7.62-.106.539-.237.855-.693 1.128-1.196.777-1.434 1.881-2.57 3.517-3.628-1.17-.58-2.078-1.226-1.886-2.636.165-1.219.332-2.387 1.3-3.246.481-.427 1.041-.84 1.726-.542.662.289.423.925.425 1.462.006 2.258.017 2.348 2.23 2.194 3.274-.228 6.465-1.008 9.673-1.666 1.162-.238 1.817-1.049 1.625-2.015-.628-3.167-.673-6.599-3.346-9.01-.709-.64-1.492-1.198-2.241-1.795-.372-.297-.89-.571-.787-1.111.137-.72.8-.924 1.422-1.114.811-.248 1.497.43 2.579.32-.521-1.542-1.388-2.955-1.023-4.582.076-.34-.259-.536-.54-.71-.543-.336-1.09-.671-1.601-1.052-2.541-1.896-3.383-3.526-2.211-6.405 1.515-3.72.96-7.727 2.168-11.474.49-1.519.031-3.355-.555-4.931-1.391-3.736-2.924-7.419-4.341-11.146-.803-2.112-1.928-3.793-4.282-4.438-.981-.269-1.895-.849-2.78-1.387-1.974-1.198-3.815-2.618-6.367-2.387-.949.086-1.762-.666-2.558-1.21-3.226-2.206-6.475-4.377-9.684-6.606-1.487-1.033-2.97-.955-4.529-.255-.772.347-1.822 1.143-2.335.182-.551-1.034.694-1.619 1.446-2.132 3.047-2.079 6.428-2.009 9.313.224 1.829 1.416 3.669 2.82 5.162 4.636.753.916 1.737 1.647 2.648 2.426.75.641 1.621 1.048 2.638.937 2-.218 3.748.523 5.519 1.301 1.679.738 3.388 1.452 5.148 1.953 2.858.814 4.988 2.444 6.41 5.034.307.56.727 1.073.948 1.664.668 1.784 1.804 2.894 3.798 2.922-.203.507.019.923.251 1.352 1.553 2.875 2.114 5.943 2.094 9.211-.024 3.998-.277 7.971-.672 11.941-.166 1.671-.178 1.67 1.686 2.226-.165-1.509-.143-1.499.753-3.476.26-.573.428-1.21.519-1.835 1.028-7.078-.039-13.658-4.686-19.367zm-73.687 108.121c-.636-2.615-1.183-4.866-1.771-7.285-2.14 1.403-4.233 2.335-5.846 4.046 2.5 1.103 4.624 2.733 7.617 3.238zm65.513-36.653c-.009.159-.035.319-.024.476.081 1.088 1.276 2.42 2.259 2.423 1.133.003 1.343-.987 1.65-1.769.863-2.197-.089-4.022-1.313-5.753-.403-.57-.833-.272-1.125.15-.927 1.342-1.377 2.848-1.448 4.472zm-59.979 25.586c2.279.793 4.506 1.027 6.836 1.31-1.914-3.113-3.638-3.453-6.836-1.31zm70.964-51.48c-.766 2.353-.139 4.804-.899 7.123-.123.375-.572.898.236 1.101.822.206.937-.389 1.013-.951.15-1.102.063-2.281.429-3.3.556-1.549-.08-2.725-.779-3.972zm-5.851-16.841q.673-2.287-1.671-3.808c-.441 1.679-.021 2.923 1.671 3.808zm1.32-10.224c.177-1.214.896-2.332.473-3.918-.807 1.469-.759 2.701-.473 3.918zm2.093 37.911c.674.64 1.088 1.274 1.736.956.348-.171.507-.973.262-1.263-.65-.768-1.181.187-1.998.307zm.249-26.97c-.139.148-.374.283-.408.458-.093.479.332.608.658.759.209.097.557.085.564-.151.016-.495-.374-.789-.814-1.066z" fill="rgba(0,0,84,1)" id="WwYGPfnScPjxpbOEDy5Uy" data-selector="path[5]" /><path d="m93.034 409.074c-1.188 1.166-1.405 2.582-1.779 3.924-.194.698-.281 1.431-.876 1.919-.707.581-1.516.963-2.43.576-.856-.362-.652-1.186-.654-1.885-.005-1.461.112-2.874 1.276-3.982.596-.568.705-1.421 1.026-2.148.364-.825.817-1.541 1.658-1.97 1.589-.81 2.579-.283 2.772 1.522.682 6.388.179 12.784.062 19.174-.298 16.229-1.348 32.441-1.219 48.679.103 13.034.157 26.073.813 39.094.58 11.506 1.867 22.941 4.188 34.236.626 3.047 1.342 6.088 2.383 9.034.181.511.393 1.011.713 1.826.671-1.561.693-2.867.718-4.174.165-8.8-.285-17.578-.731-26.365-.611-12.053-1.674-24.074-2.203-36.136-.778-17.754-.639-35.5-.148-53.242.428-15.507.798-31.013 1.095-46.522.006-.32.009-.64.021-.959.029-.732.367-1.253 1.127-1.29.706-.035.921.543 1.035 1.108.126.624.242 1.257.276 1.891.389 7.188.574 14.388.487 21.581-.198 16.234-.111 32.469-.191 48.703-.065 13.04.481 26.061 1.251 39.072.495 8.376 1.308 16.734 1.731 25.112.471 9.339 1.044 18.687.483 28.048-.115 1.916-.365 3.817-.874 5.674-.212.774-.506 1.518-1.038 2.141-1.556 1.822-3.653 1.711-4.967-.293-.795-1.213-1.246-2.586-1.705-3.951-1.382-4.112-2.031-8.374-2.666-12.648-2.541-17.115-3.709-34.321-3.604-51.621.057-9.436-.058-18.873.158-28.309.234-10.235.819-20.451 1.543-30.661.521-7.342.802-14.692.711-22.052-.021-1.704-.288-3.405-.442-5.107z" fill="rgba(0,0,84,1)" id="s8351IKLkRuvcTitAYW2l" data-selector="path[6]" /><path d="m154.22 412.79c.185.467.293.739.557 1.404.205-2.369.446-4.368.539-6.374.784-16.924 1.481-33.85.985-50.799-.114-3.913-.283-7.832-1.027-11.684-.243-1.257-.178-3.206-1.6-3.392-1.207-.158-1.691 1.696-2.301 2.775-2.291 4.055-2.65 8.475-2.326 13.012.044.611.365 1.236-.007 1.867-1.103.008-1.254-.81-1.37-1.61-.841-5.792.406-11.11 3.662-15.965.133-.198.292-.38.452-.559 2.043-2.292 3.918-1.978 4.962.957 1.132 3.184 1.473 6.527 1.638 9.891.794 16.224.304 32.434-.462 48.643-.754 15.961-1.815 31.908-2.299 47.883-.019.637-.035 1.285-.168 1.903-.13.608-.617.926-1.24.921-.708-.006-.949-.505-.993-1.113-.041-.557-.048-1.118-.032-1.677.321-11.663.647-23.326.974-34.989.008-.302.032-.603.058-1.095z" fill="rgba(0,0,84,1)" id="hIyqyGNf-pfFCY-viwRz5" data-selector="path[7]" /><path d="m155.283 503.513c-.771-.283-.686-.833-.786-1.273-3.176-13.949-5.76-27.989-7.321-42.231-1.132-10.323-2.33-20.64-3.021-30.998-.681-10.215-.635-20.446.705-30.63.501-3.804 1.659-7.489 2.052-11.314.032-.308.149-.621.288-.902.264-.533.648-.908 1.32-.787.721.13.871.667.806 1.253-.221 1.984-.431 3.972-.742 5.943-1.826 11.548-3.027 23.134-2.104 34.844.822 10.43 1.761 20.85 3.075 31.233 1.515 11.964 3.003 23.932 4.556 35.892.318 2.452.886 4.872 1.308 7.312.091.524.337 1.091-.133 1.659z" fill="rgba(0,0,84,1)" id="elUL8b3RowYuotwdpUeDu" data-selector="path[8]" /><path d="m208.969 273.49c5.86-.764 15.913.389 16.034 1.065s-2.378.485-3.579.329c-4.217-.548-8.563.366-12.785.347-.768-.003-1.862.076-1.198 1.557.361.804-.718 1.214-1.486.635-.833-.627-1.749-.918-2.634-1.358-1.02-.506-.985-1.659.097-1.918 1.251-.299 2.975-1.263 3.643-2.163 2.021-3.616 3.826-5.09 7.834-5.329 1.911-.114 3.817-.328 5.735-.295 2.793.048 5.117 1.044 6.794 3.372.605.84 1.279 1.633 1.956 2.419.673.782 1.317 1.66 2.554.777.4-.286.959-.218 1.235.302.247.464.1.936-.194 1.345-.657.915-1.833 1.216-2.681.517-.766-.632-1.601-1.027-2.514-1.326-.462-.151-.894-.343-1.164-.78-1.539-2.495-3.938-2.875-6.591-2.75-1.912.091-3.833.002-5.746.086-2.443.108-3.286.974-5.311 3.168z" fill="rgba(0,0,84,1)" id="h0fV3rtXksxUUu6oYI5" data-selector="path[9]" /><path d="m274.827 289.304c-.747.262-.932-.458-1.446-.422-.434.031-.778.19-1.036.505-.333.406-.048.727.206 1.038.151.185.311.365.446.562.576.842.906 1.75.231 2.657-.722.969-1.771 1.318-2.963 1.209-.61-.056-1.028-.39-1.24-.973-.191-.524-.434-1.008-.77-1.472-1.217-1.682-1.151-2.549.314-3.899.52-.479 1.141-.88 1.776-1.198 2.458-1.23 3.401-.813 4.482 1.993z" fill="rgba(0,0,84,1)" id="RkUibs7fRI_Lq2ZA2Fpj2" data-selector="path[10]" /><path d="m242.297 276.928c-.788-.765-.932-1.606-.675-2.482.199-.68.722-1.06 1.471-.855.695.19.752.754.623 1.34-.173.786-.451 1.522-1.419 1.998z" fill="rgba(0,0,84,1)" id="B3rNI7Rzf_5JXOkhGT0YZ" data-selector="path[11]" /><path d="m389.455 594.044c-.074-1.853-.783-3.282-1.468-4.732-4.156-8.786-9.564-16.791-15.219-24.655-5.059-7.035-10.873-13.412-16.83-19.671-3.643-3.828-7.137-7.781-10.084-12.182-.843-1.259-1.626-2.569-2.319-3.916-.762-1.481-.363-2.18 1.265-2.543 1.227-.273 2.388.085 3.535.405 3.322.926 6.496 2.266 9.569 3.797 10.229 5.095 20.424 10.257 30.62 15.418 8.35 4.226 16.798 8.211 25.777 10.962 5.463 1.674 11.051 2.577 16.75 2.723 4.045.104 7.972-.499 11.552-2.577 2.287-1.327 3.92-3.253 5.142-5.559.377-.711.602-1.456.663-2.279.125-1.674.643-2.246 2.194-2.636 2.057-.517 2.967.269 2.511 2.311-.706 3.169-2.632 5.635-4.963 7.751-4.548 4.128-10.066 5.812-16.092 5.77-8.074-.056-15.858-1.719-23.404-4.594-6.737-2.567-13.166-5.772-19.555-9.081-11.853-6.138-23.688-12.311-35.677-18.181-1.945-.952-3.991-1.638-6.008-2.4-.675-.255-1.358-.411-2.045-.285-.396.831.179 1.29.478 1.799 3.433 5.852 7.993 10.794 12.835 15.456 12.292 11.836 22.603 25.227 31.571 39.693 1.223 1.973 2.175 4.098 2.897 6.304 1.377 4.209-1.198 7.089-5.505 6.157-3.144-.68-6.081-1.973-8.985-3.304-14.256-6.532-26.766-15.565-37.993-26.464-10.628-10.318-20.804-21.043-29.852-32.79-6.612-8.585-12.339-17.705-16.244-27.873-1.09-2.839-1.965-5.745-2.585-8.725-.181-.869-.242-1.741-.14-2.622.04-.348.248-.602.589-.655.321-.05.649.038.806.367.171.359.33.729.445 1.109 4.501 14.796 12.572 27.567 22.389 39.329 10.314 12.358 21.406 23.976 33.36 34.765 10.614 9.58 22.625 16.935 35.785 22.456 1.102.463 2.251.817 3.388 1.192.201.066.451-.017.85-.042z" fill="rgba(0,0,84,1)" id="cwq7y7zbZDE46wAJ3kMVb" data-selector="path[12]" /><path d="m335.6 475.59c.565.184.626.603.774.965 2.188 5.333 5.461 9.915 9.614 13.892 6.587 6.309 13.678 12.038 20.654 17.895 8.078 6.783 15.999 13.764 24.453 20.086 10.224 7.645 21.747 11.654 34.512 11.958 4.373.104 8.49-1.401 12.649-2.506 4.48-1.19 8.952-2.446 13.571-2.905 4.447-.441 8.919-.85 13.363.16 1.737.395 3.349 1.078 4.819 2.06 1.314.878 2.388 2.059 2.188 3.737-.223 1.871-1.647 3.043-3.083 4.06-.651.461-1.229-.021-1.053-.883.476-2.326-.591-3.826-2.525-4.836-1.947-1.017-4.066-1.4-6.25-1.445-5.623-.116-11.169.418-16.615 1.883-3.007.809-6.045 1.508-9.042 2.351-6.67 1.876-13.271 1.381-19.88-.352-10.401-2.727-19.581-7.717-27.625-14.809-11.092-9.78-22.523-19.161-33.74-28.792-3.883-3.334-7.736-6.695-11.049-10.623-2.186-2.593-3.846-5.491-5.072-8.643-.4-1.028-.738-2.078-.662-3.251z" fill="rgba(0,0,84,1)" id="mYXZCGyL6CYY6geQ6aRaK" data-selector="path[13]" /><path d="m317.242 462.868c-.733-.504-.586-1.207-.675-1.801-2.73-18.107-6.483-36-11.159-53.703-2.285-8.651-4.534-17.311-7.344-25.813-1.905-5.764-3.888-11.502-5.405-17.388-.387-1.5-.609-1.56-1.999-.857-.925.468-1.8 1.036-2.704 1.547-.631.357-1.293.693-2.038.547-.689-.134-1.072-.637-.464-1.17 2.241-1.964 4.637-3.695 7.746-3.973 1.169-.105 2.034.416 2.395 1.564.431 1.371.772 2.771 1.202 4.143 2.317 7.394 4.745 14.754 6.951 22.181 2.183 7.352 4.11 14.784 5.608 22.305 2.262 11.351 5.026 22.604 6.673 34.079.807 5.625 1.155 11.287 1.651 16.938.039.444.207.96-.437 1.401z" fill="rgba(0,0,84,1)" id="Y2Lb_ylnmtkKNbmmat8Ci" data-selector="path[14]" /><path d="m294.004 474.25c-.703-.518-.594-1.2-.652-1.807-.411-4.297-.841-8.59-1-12.91-.462-12.551-.402-25.101-.172-37.654.13-7.114.143-14.232-.382-21.336-.51-6.902-2.02-13.58-4.54-20.03-.814-2.083-1.551-4.196-2.331-6.292-.381-1.023-.429-2.035.106-3.012.292-.533.78-.81 1.398-.708.657.108.578.648.584 1.12.014 1.159.518 2.17 1.004 3.173 4.968 10.266 7.053 21.14 7.16 32.499.08 8.563-.359 17.103-.664 25.651-.476 13.342-1.248 26.682-.512 40.041.022.393.003.788.003 1.267z" fill="rgba(0,0,84,1)" id="Qa-TPCJ7sYY0d2Pk-kAEG" data-selector="path[15]" /></g></g><g transform="translate(369 55) rotate(0 90.5 139) scale(1 1)" opacity="1" data-asset-index="1"><g clip-path="url(#assetClipPath_A2tpZPYF)" transform="scale(1.0034316252820419 1.0034316252820419)" data-asset-index="1"><defs data-selector="defs[1]" /><path d="m143.243 140.773c-1.193.484-2.16.849-3.102 1.27-.466.208-.897.2-1.388.126-3.077-.465-6.168-.81-9.287-.677-6.629.283-13.26.555-19.886.901-5.787.302-10.298 3.159-14.078 7.333-5.914 6.53-11.077 13.649-16.133 20.844-.679.966-1.357 1.586-2.567 1.863-4.377 1.002-5.884 6.708-2.548 9.061 2.253 1.589 6.805-.865 6.684-3.613-.107-2.443.791-4.213 2.262-6.041 4.761-5.912 9.345-11.966 14.066-17.911 1.338-1.685 2.84-3.255 4.389-4.752 1.956-1.89 4.299-2.901 7.102-2.97 4.869-.12 9.744-.176 14.593-.8 1.745-.225 3.469-.536 5.204-.802 3.499-.536 7.001-.832 10.434.349 1.609.554 3.036.088 4.324-.747 1.094-.709 1.507-.3 1.947.677 1.377 3.06 2.848 6.079 4.199 9.15 3.315 7.532 6.632 15.062 10.231 22.464.731 1.504 1.626 2.852 2.743 4.146 1.771 2.05 2.98 4.526 4.134 6.996 1.113 2.381 2.102 4.814 3.334 7.149 1.527 2.894.78 4.171-1.456 6.463-2.676 2.743-6.073 4.156-9.209 6.058-3.142 1.906-6.357 3.692-9.573 5.472-12.246 6.776-24.187 14.057-35.727 21.969-4.873 3.341-9.397 7.185-14.163 10.687-10.049 7.383-19.919 15.009-30.116 22.193-3.331 2.347-6.452 4.988-9.878 7.207-1.005.651-2.006 1.324-3.071 1.865-2.329 1.183-3.658.746-4.849-1.564-4.504-8.736-8.667-17.635-12.732-26.583-10.148-22.34-19.55-44.997-28.897-67.679-1.983-4.812-4.182-9.511-7.242-13.749-1.693-2.345-2.216-5.1-2.927-7.801-.211-.801.161-1.387.556-1.997 2.043-3.16 4.317-6.069 7.168-8.615 11.139-9.95 23.257-18.523 36.12-26.054 13.999-8.197 27.871-16.615 42.029-24.539 6.482-3.628 12.923-7.35 19.791-10.233 1.323-.555 2.696-.995 4.057-1.454 1.681-.567 3.048-.22 4.283 1.179 2.285 2.589 4.29 5.362 6.082 8.306 3.538 5.812 6.415 11.971 9.508 18.016 4.331 8.465 8.619 16.952 12.923 25.431.216.426.41.863.666 1.403z" fill="rgba(0,0,84,1)" id="DI1kTv4zVwGE1TMTKlIXY" data-selector="path[2]" /><path d="m170.809 45.158c-.395-3.558-.767-7.119-1.189-10.673-.593-4.999-1.231-9.992-1.828-14.99-.085-.708-.087-1.434-.048-2.147.028-.506.344-.922.845-1.049.653-.165 1.105.232 1.312.783.308.818.561 1.665.747 2.519 1.071 4.922 1.904 9.883 2.504 14.886.532 4.432 1.139 8.856 1.715 13.294.747.105.615-.537.749-.929.18-.529.285-1.085.48-1.607.285-.762.932-1.102 1.686-1.13.747-.028 1.119.528 1.355 1.16.535 1.437.723 2.938.853 4.457.554 6.469.51 12.93-.072 19.398-.646 7.175-1.733 14.273-3.34 21.296-.356 1.555-.86 2.917-2.508 3.517-.57.207-.822.726-1.109 1.208-.415.695-.905 1.393-1.616 1.74-1.542.752-1.968 1.993-2.259 3.598-1.383 7.633-3.056 15.203-6.012 22.416-2.048 5-4.708 9.604-8.671 13.381-2.288 2.181-4.871 3.875-7.739 5.163-.433.195-.841.48-1.351.428-.445-.046-.783-.35-.885-.705-.08-.278.26-.526.58-.661 8.686-3.67 12.945-11.095 16.096-19.318 2.723-7.109 4.424-14.512 5.394-22.07.251-1.956-.412-3.977.421-5.903.613-1.417.621-2.953.838-4.455.55-3.799.082-7.512-1.097-11.09-3.078-9.347-5.17-18.962-7.893-28.403-4.543-15.75-9.505-31.358-16.232-46.347-.36-.803-1.172-1.712.031-2.531 1.036-.705 1.96-.379 2.847.322 2.279 1.801 4.11 4.026 5.874 6.301 2.354 3.037 4.394 6.291 6.357 9.589.548.922.995 1.688 2.365 1.509 1.275-.167 1.911.992 2.498 1.949 1.513 2.466 2.56 5.143 3.53 7.857 2.01 5.624 3.503 11.381 4.773 17.238zm-11.48-3.313c.162-4.759-1.305-9.14-3.011-13.425-2.017-5.067-3.925-10.199-6.907-14.837 3.25 9.446 6.653 18.829 9.918 28.262zm17.369 8.671c-.616 1.451-1.203 2.888-1.154 4.404.149 4.688.406 9.372.63 14.252 1.03-3.498 1.068-14.914.525-18.656zm-6.012 23.878c-2.166.523-2.252.655-1.679 2.581.045.152.101.3.149.45.15.465.304.922.953.778.557-.123.78-.502.76-1.033-.034-.926.328-1.883-.185-2.777zm.871-18.682c-.289.887-.203 1.518 0 2.151z" fill="rgba(0,0,84,1)" id="yFX2gtbryAwZIX8fRE2ny" data-selector="path[3]" /></g></g></svg>